<svg width="17" height="17" viewBox="0 0 17 17" fill="none" xmlns="http://www.w3.org/2000/svg">
<path fill-rule="evenodd" clip-rule="evenodd" d="M6.23222 0.198481C7.33447 -0.0517316 8.47722 -0.065534 9.58519 0.157983C10.6932 0.381501 11.7412 0.837264 12.6602 1.49524C13.5793 2.15322 14.3484 2.99848 14.9171 3.97532C15.4857 4.95215 15.8409 6.0384 15.9592 7.16248C15.98 7.36033 15.9214 7.55835 15.7962 7.71298C15.671 7.8676 15.4896 7.96616 15.2917 7.98698C15.0939 8.0078 14.8958 7.94917 14.7412 7.82399C14.5866 7.69881 14.488 7.51733 14.4672 7.31948C14.3387 6.0981 13.8667 4.93814 13.1061 3.97394C12.3454 3.00975 11.3271 2.28078 10.1692 1.87147C9.0113 1.46217 7.76113 1.38928 6.5635 1.66125C5.36587 1.93322 4.26979 2.53892 3.40223 3.40818C2.53466 4.27745 1.93112 5.37471 1.6615 6.57287C1.39188 7.77103 1.46722 9.02106 1.87879 10.1782C2.29037 11.3353 3.02133 12.3521 3.98702 13.1109C4.9527 13.8697 6.11359 14.3393 7.33522 14.4655C7.43391 14.4747 7.52979 14.5034 7.61733 14.5498C7.70487 14.5963 7.78233 14.6597 7.84523 14.7363C7.90812 14.8129 7.95522 14.9012 7.98378 14.9961C8.01234 15.091 8.02181 15.1907 8.01163 15.2892C8.00145 15.3878 7.97184 15.4834 7.92449 15.5705C7.87714 15.6576 7.81301 15.7344 7.73579 15.7966C7.65857 15.8587 7.5698 15.9049 7.47461 15.9325C7.37942 15.9602 7.2797 15.9686 7.18122 15.9575C5.29413 15.7633 3.53745 14.9049 2.22472 13.5354C0.911995 12.1659 0.128648 10.3745 0.0145027 8.48085C-0.0996424 6.58724 0.462843 4.71469 1.60156 3.19742C2.74028 1.68015 4.38112 0.616915 6.23122 0.197481L6.23222 0.198481ZM11.2832 10.2185C11.214 10.1469 11.1312 10.0898 11.0397 10.0505C10.9482 10.0113 10.8497 9.99062 10.7502 9.9898C10.6506 9.98898 10.5518 10.008 10.4597 10.0458C10.3675 10.0835 10.2838 10.1392 10.2134 10.2097C10.143 10.2801 10.0874 10.3639 10.0497 10.4561C10.012 10.5483 9.99312 10.6471 9.99403 10.7466C9.99494 10.8462 10.0157 10.9446 10.055 11.0361C10.0944 11.1276 10.1516 11.2103 10.2232 11.2795L11.9432 12.9995L10.2232 14.7195C10.1495 14.7881 10.0904 14.8709 10.0494 14.9629C10.0084 15.0549 9.9864 15.1543 9.98463 15.255C9.98285 15.3557 10.0014 15.4557 10.0391 15.5491C10.0768 15.6425 10.133 15.7273 10.2042 15.7985C10.2754 15.8697 10.3602 15.9259 10.4536 15.9636C10.547 16.0013 10.647 16.0198 10.7477 16.0181C10.8484 16.0163 10.9478 15.9943 11.0398 15.9533C11.1318 15.9123 11.2146 15.8532 11.2832 15.7795L13.0032 14.0595L14.7232 15.7795C14.7919 15.8532 14.8747 15.9123 14.9667 15.9533C15.0587 15.9943 15.158 16.0163 15.2587 16.0181C15.3594 16.0198 15.4594 16.0013 15.5528 15.9636C15.6462 15.9259 15.731 15.8697 15.8023 15.7985C15.8735 15.7273 15.9296 15.6425 15.9673 15.5491C16.0051 15.4557 16.0236 15.3557 16.0218 15.255C16.02 15.1543 15.998 15.0549 15.957 14.9629C15.916 14.8709 15.8569 14.7881 15.7832 14.7195L14.0632 12.9995L15.7832 11.2795C15.8569 11.2108 15.916 11.128 15.957 11.036C15.998 10.944 16.02 10.8447 16.0218 10.744C16.0236 10.6433 16.0051 10.5433 15.9673 10.4499C15.9296 10.3565 15.8735 10.2717 15.8023 10.2004C15.731 10.1292 15.6462 10.0731 15.5528 10.0354C15.4594 9.99764 15.3594 9.97911 15.2587 9.98089C15.158 9.98267 15.0587 10.0047 14.9667 10.0457C14.8747 10.0867 14.7919 10.1458 14.7232 10.2195L13.0032 11.9395L11.2832 10.2185ZM11.5332 6.27948C11.6657 6.13731 11.7378 5.94926 11.7344 5.75496C11.731 5.56066 11.6523 5.37527 11.5148 5.23786C11.3774 5.10045 11.192 5.02173 10.9977 5.01831C10.8034 5.01488 10.6154 5.087 10.4732 5.21948L6.50322 9.18948L5.28322 7.96948C5.14104 7.837 4.953 7.76488 4.7587 7.76831C4.56439 7.77173 4.37901 7.85045 4.2416 7.98786C4.10418 8.12527 4.02547 8.31066 4.02204 8.50496C4.01861 8.69926 4.09074 8.88731 4.22322 9.02948L5.97322 10.7795C6.11384 10.9199 6.30447 10.9988 6.50322 10.9988C6.70197 10.9988 6.89259 10.9199 7.03322 10.7795L11.5332 6.27948Z" fill="#624EFC"/>
</svg>
