<svg width="35" height="26" viewBox="0 0 35 26" fill="none" xmlns="http://www.w3.org/2000/svg">
<path d="M17.0228 0C19.3189 0 21.5086 0.457087 23.5071 1.2841L23.5241 1.29047L23.5326 1.29473C27.657 3.0104 30.9735 6.31205 32.6956 10.4152L32.7296 10.479C32.7409 10.5102 32.7494 10.5406 32.7551 10.5704C34.4306 14.6787 34.4344 19.2791 32.7657 23.3901C32.7572 23.4326 32.7452 23.4737 32.7296 23.5134C32.7112 23.5545 32.6899 23.5935 32.6658 23.6303C32.4808 24.0717 32.2772 24.5051 32.0556 24.9293L31.9366 25.11C31.7685 25.3114 31.532 25.4436 31.2724 25.4811C31.0127 25.5186 30.7484 25.4587 30.5303 25.3131C30.3121 25.1675 30.1555 24.9464 30.0905 24.6922C30.0256 24.4381 30.0569 24.1689 30.1784 23.9365L30.3123 23.6601L27.421 22.4589C27.2847 22.4111 27.1596 22.336 27.0533 22.2382C26.947 22.1405 26.8618 22.022 26.8028 21.8902C26.7438 21.7584 26.7122 21.6159 26.7101 21.4715C26.708 21.3271 26.7353 21.1838 26.7904 21.0503C26.8455 20.9168 26.9273 20.7959 27.0306 20.6951C27.134 20.5942 27.2568 20.5155 27.3916 20.4637C27.5264 20.4119 27.6704 20.3881 27.8147 20.3937C27.959 20.3994 28.1007 20.4344 28.231 20.4966L31.1436 21.6999C32.1601 18.6499 32.1587 15.3522 31.1393 12.3031L28.2267 13.5064C28.0968 13.565 27.9565 13.5969 27.814 13.6001C27.6715 13.6034 27.5298 13.5779 27.3974 13.5253C27.2649 13.4728 27.1444 13.3941 27.043 13.294C26.9416 13.1938 26.8613 13.0744 26.807 12.9426C26.7527 12.8109 26.7254 12.6695 26.7268 12.527C26.7282 12.3845 26.7582 12.2438 26.8151 12.1131C26.872 11.9824 26.9545 11.8645 27.0579 11.7664C27.1613 11.6683 27.2833 11.592 27.4167 11.542L30.3081 10.3408C28.8699 7.47252 26.5433 5.14587 23.675 3.70772L22.4738 6.62032C22.3629 6.87603 22.156 7.07793 21.8976 7.18254C21.6392 7.28715 21.3501 7.28609 21.0925 7.1796C20.8349 7.0731 20.6295 6.8697 20.5204 6.61319C20.4114 6.35668 20.4074 6.06759 20.5094 5.80819L21.7106 2.89559C18.6605 1.88073 15.3638 1.88073 12.3137 2.89559L13.5213 5.80819C13.5746 5.93718 13.602 6.0754 13.6019 6.21498C13.6018 6.35455 13.5743 6.49274 13.5208 6.62165C13.4673 6.75056 13.3889 6.86768 13.2901 6.9663C13.1914 7.06493 13.0741 7.14314 12.9452 7.19646C12.8162 7.24979 12.678 7.27719 12.5384 7.27709C12.3988 7.277 12.2606 7.24941 12.1317 7.19591C12.0028 7.14241 11.8857 7.06405 11.7871 6.96529C11.6884 6.86653 11.6102 6.74931 11.5569 6.62032L10.3493 3.70772C7.47523 5.15514 5.14242 7.48796 3.69499 10.3621L6.6076 11.5739C6.8551 11.69 7.04833 11.8971 7.14715 12.152C7.24597 12.4069 7.24277 12.6901 7.13822 12.9427C7.03367 13.1953 6.83581 13.3979 6.58575 13.5084C6.33569 13.619 6.05266 13.6289 5.79547 13.5362L2.88287 12.3265C2.21075 14.3525 1.98236 16.4994 2.21318 18.6215L0.233889 19.8397C-0.174568 17.4026 -0.0469053 14.9057 0.607989 12.5229C1.26288 10.1401 2.42927 7.92871 4.02594 6.04266C5.6226 4.15661 7.61117 2.64124 9.85319 1.60207C12.0952 0.562896 14.5368 0.0248894 17.0079 0.0255118L17.0228 0Z" fill="black"/>
<path d="M15.0037 13.2449C15.4971 12.984 16.0372 12.8229 16.593 12.7711C17.1488 12.7192 17.7093 12.7774 18.2425 12.9426C18.7758 13.1077 19.2712 13.3763 19.7004 13.7332C20.1296 14.0901 20.4842 14.5281 20.7439 15.0222C21.8387 17.0993 21.0436 19.6781 18.9665 20.7624C18.2634 21.1333 17.4703 21.2996 16.6774 21.2425C15.8845 21.1853 15.1234 20.9071 14.4807 20.4393L3.31927 25.4141C3.25636 25.4423 3.19086 25.4644 3.12368 25.48C3.15627 25.4715 3.18887 25.4601 3.22147 25.446C2.97538 25.5261 2.70848 25.5135 2.47101 25.4106C2.23354 25.3077 2.04188 25.1215 1.93213 24.8871C1.82238 24.6527 1.80211 24.3863 1.87512 24.138C1.94813 23.8897 2.1094 23.6766 2.32856 23.5389L12.7459 17.1185C12.7229 16.3246 12.9216 15.5401 13.3196 14.8528C13.7177 14.1656 14.2994 13.6029 14.9994 13.2279L15.0037 13.2449Z" fill="black"/>
</svg>
