<svg width="38" height="38" viewBox="0 0 38 38" fill="none" xmlns="http://www.w3.org/2000/svg">
<rect width="38" height="38" rx="5" fill="#7143EA" fill-opacity="0.1"/>
<path d="M24.75 14.751C24.75 15.2814 24.5393 15.7901 24.1642 16.1652C23.7891 16.5403 23.2804 16.751 22.75 16.751C22.2196 16.751 21.7109 16.5403 21.3358 16.1652C20.9607 15.7901 20.75 15.2814 20.75 14.751C20.75 14.2206 20.9607 13.7119 21.3358 13.3368C21.7109 12.9617 22.2196 12.751 22.75 12.751C23.2804 12.751 23.7891 12.9617 24.1642 13.3368C24.5393 13.7119 24.75 14.2206 24.75 14.751Z" fill="#624EFC"/>
<path fill-rule="evenodd" clip-rule="evenodd" d="M18.693 8.001H18.807C21.116 8.001 22.925 8.001 24.337 8.191C25.781 8.385 26.921 8.791 27.816 9.685C28.711 10.58 29.116 11.72 29.31 13.165C29.5 14.576 29.5 16.385 29.5 18.694V18.782C29.5 20.691 29.5 22.253 29.396 23.525C29.292 24.805 29.079 25.872 28.601 26.76C28.3917 27.1507 28.13 27.503 27.816 27.817C26.921 28.712 25.781 29.117 24.336 29.311C22.925 29.501 21.116 29.501 18.807 29.501H18.693C16.384 29.501 14.575 29.501 13.163 29.311C11.719 29.117 10.579 28.711 9.684 27.817C8.891 27.024 8.481 26.037 8.264 24.811C8.049 23.608 8.01 22.111 8.002 20.253C8.00067 19.7797 8 19.279 8 18.751V18.693C8 16.384 8 14.575 8.19 13.163C8.384 11.719 8.79 10.579 9.684 9.684C10.579 8.789 11.719 8.384 13.164 8.19C14.575 8 16.384 8 18.693 8M13.363 9.676C12.085 9.848 11.314 10.176 10.745 10.745C10.175 11.315 9.848 12.085 9.676 13.364C9.502 14.664 9.5 16.372 9.5 18.75V19.594L10.501 18.718C10.9401 18.3337 11.5088 18.1306 12.092 18.1499C12.6752 18.1692 13.2293 18.4094 13.642 18.822L17.932 23.112C18.2649 23.4448 18.7046 23.6496 19.1735 23.6902C19.6425 23.7308 20.1108 23.6047 20.496 23.334L20.794 23.124C21.3497 22.7335 22.0214 22.5432 22.6993 22.584C23.3773 22.6249 24.0213 22.8946 24.526 23.349L27.356 25.896C27.642 25.298 27.811 24.512 27.901 23.403C27.999 22.198 28 20.696 28 18.75C28 16.372 27.998 14.664 27.824 13.364C27.652 12.085 27.324 11.314 26.755 10.744C26.185 10.175 25.415 9.848 24.136 9.676C22.836 9.502 21.128 9.5 18.75 9.5C16.372 9.5 14.663 9.502 13.363 9.676Z" fill="#624EFC"/>
</svg>
