<svg width="23" height="30" viewBox="0 0 23 30" fill="none" xmlns="http://www.w3.org/2000/svg">
<path d="M5.1593 4.01385V7.1662C5.1593 8.27182 6.06072 9.17282 7.16614 9.17303H15.7657C16.872 9.17303 17.7726 8.27249 17.7726 7.1662V4.01385H20.0675C21.3483 4.01409 22.3603 5.02424 22.3605 6.30682V26.9465C22.3605 28.2292 21.3484 29.2402 20.0675 29.2404H2.86633C1.58393 29.2402 0.573364 28.2289 0.573364 26.9465V6.30682C0.573529 5.04184 1.60136 4.01409 2.86633 4.01385H5.1593ZM11.4679 0.573425C12.6916 0.573566 13.7509 1.27477 14.2726 2.29315H15.7657C16.5574 2.29315 17.2003 2.93525 17.2003 3.72675V7.1662C17.2003 7.95661 16.5585 8.60077 15.7657 8.60077H7.16614C6.37429 8.60056 5.73352 7.95595 5.73352 7.1662V3.72675C5.73352 2.93592 6.37536 2.29336 7.16614 2.29315H8.66028C9.18369 1.27519 10.2427 0.573425 11.4679 0.573425Z" stroke="#BCBCBC" stroke-width="1.14667"/>
<path d="M5.25964 13.7362L7.1311 15.6077L10.9283 11.8105" stroke="#BCBCBC" stroke-width="1.14667" stroke-linecap="round" stroke-linejoin="round"/>
<path d="M5.25964 20.6162L7.1311 22.4877L10.9283 18.6905" stroke="#BCBCBC" stroke-width="1.14667" stroke-linecap="round" stroke-linejoin="round"/>
<path d="M13.3289 14.5629H18.3321" stroke="#BCBCBC" stroke-width="1.14667" stroke-linecap="round"/>
<path d="M13.3289 21.4429H18.3321" stroke="#BCBCBC" stroke-width="1.14667" stroke-linecap="round"/>
</svg>
