<svg width="32" height="32" viewBox="0 0 32 32" fill="none" xmlns="http://www.w3.org/2000/svg">
<rect width="32" height="32" rx="5" fill="#7143EA" fill-opacity="0.1"/>
<path d="M16 16.075C15.4317 16.075 14.8866 15.8511 14.4848 15.4526C14.0829 15.0541 13.8571 14.5136 13.8571 13.95C13.8571 13.3864 14.0829 12.8459 14.4848 12.4474C14.8866 12.0489 15.4317 11.825 16 11.825C16.5683 11.825 17.1134 12.0489 17.5152 12.4474C17.9171 12.8459 18.1429 13.3864 18.1429 13.95C18.1429 14.2291 18.0874 14.5054 17.9797 14.7632C17.8721 15.021 17.7142 15.2553 17.5152 15.4526C17.3162 15.6499 17.08 15.8065 16.82 15.9132C16.5601 16.02 16.2814 16.075 16 16.075ZM16 8C14.4087 8 12.8826 8.62687 11.7574 9.74271C10.6321 10.8586 10 12.372 10 13.95C10 18.4125 16 25 16 25C16 25 22 18.4125 22 13.95C22 12.372 21.3679 10.8586 20.2426 9.74271C19.1174 8.62687 17.5913 8 16 8Z" fill="#624EFC"/>
</svg>
