<svg width="52" height="52" viewBox="0 0 52 52" fill="none" xmlns="http://www.w3.org/2000/svg">
<path d="M0 10.3636C0 4.63996 4.63996 0 10.3636 0H41.6364C47.36 0 52 4.63996 52 10.3636V41.6364C52 47.36 47.36 52 41.6364 52H10.3636C4.63996 52 0 47.36 0 41.6364V10.3636Z" fill="#F2F1FD"/>
<path d="M36.5972 17.0048C36.576 16.8498 36.4411 16.764 36.3296 16.7545C35.5076 16.6924 34.6855 16.6307 33.8634 16.5695C33.8634 16.5695 32.2279 14.9351 32.0484 14.7542C31.8688 14.5734 31.518 14.6284 31.3818 14.6687C31.3618 14.6747 31.0245 14.7795 30.4666 14.9532C29.9202 13.3708 28.9561 11.9165 27.2598 11.9165C27.213 11.9165 27.1648 11.9184 27.1166 11.9212C26.6342 11.279 26.0366 11 25.5204 11C21.569 11 19.6812 15.9722 19.0893 18.4989C17.5539 18.9778 16.4632 19.3183 16.3238 19.3624C15.4668 19.633 15.4397 19.6601 15.3272 20.473C15.2425 21.0885 13 38.545 13 38.545L30.4739 41.8405L39.9418 39.7788C39.9418 39.7788 36.618 17.1598 36.5972 17.0048ZM29.5008 15.2539L28.0222 15.7145C28.0228 15.6097 28.0233 15.5065 28.0233 15.3936C28.0233 14.4101 27.8877 13.6182 27.6701 12.9905C28.5441 13.1009 29.1262 14.1019 29.5008 15.2539ZM26.5859 13.1855C26.8289 13.7984 26.9868 14.678 26.9868 15.8649C26.9868 15.9256 26.9863 15.9811 26.9858 16.0373C26.0242 16.3371 24.9794 16.6626 23.9322 16.9892C24.5201 14.7049 25.6223 13.6017 26.5859 13.1855ZM25.4119 12.0668C25.5824 12.0668 25.7542 12.1251 25.9187 12.239C24.6523 12.8389 23.2949 14.3496 22.7217 17.3665L20.3079 18.119C20.9793 15.8178 22.5737 12.0668 25.4119 12.0668Z" fill="#95BF46"/>
<path d="M36.3297 16.7545C35.5077 16.6924 34.6857 16.6307 33.8636 16.5695C33.8636 16.5695 32.2281 14.9351 32.0486 14.7542C31.9814 14.6869 31.8908 14.6524 31.7961 14.6375L30.4749 41.8403L39.9419 39.7788C39.9419 39.7788 36.6182 17.1598 36.5973 17.0048C36.5761 16.8498 36.4412 16.764 36.3297 16.7545Z" fill="#5E8E3E"/>
<path d="M27.2598 22.0205L26.0923 25.516C26.0923 25.516 25.0695 24.9665 23.8157 24.9665C21.9776 24.9665 21.8851 26.1277 21.8851 26.4202C21.8851 28.0167 26.0195 28.6285 26.0195 32.368C26.0195 35.3101 24.1656 37.2046 21.666 37.2046C18.6665 37.2046 17.1326 35.3255 17.1326 35.3255L17.9357 32.6544C17.9357 32.6544 19.5125 34.0171 20.843 34.0171C21.7123 34.0171 22.066 33.328 22.066 32.8246C22.066 30.7421 18.6741 30.6492 18.6741 27.2272C18.6741 24.3471 20.7278 21.5599 24.8733 21.5599C26.4707 21.5599 27.2598 22.0205 27.2598 22.0205Z" fill="white"/>
</svg>
