<svg width="43" height="43" viewBox="0 0 43 43" fill="none" xmlns="http://www.w3.org/2000/svg">
<path d="M0 12C0 5.37258 5.37258 0 12 0H31C37.6274 0 43 5.37258 43 12V31C43 37.6274 37.6274 43 31 43H12C5.37258 43 0 37.6274 0 31V12Z" fill="#F2F1FD"/>
<path d="M14.7621 10C14.2948 10 13.8466 10.1932 13.5161 10.537C13.1857 10.8808 13 11.3471 13 11.8333C13 12.3196 13.1857 12.7859 13.5161 13.1297C13.8466 13.4735 14.2948 13.6667 14.7621 13.6667C15.2295 13.6667 15.6777 13.4735 16.0081 13.1297C16.3386 12.7859 16.5243 12.3196 16.5243 11.8333C16.5243 11.3471 16.3386 10.8808 16.0081 10.537C15.6777 10.1932 15.2295 10 14.7621 10ZM20.9296 10C20.4622 10 20.014 10.1932 19.6836 10.537C19.3531 10.8808 19.1675 11.3471 19.1675 11.8333C19.1675 12.3196 19.3531 12.7859 19.6836 13.1297C20.014 13.4735 20.4622 13.6667 20.9296 13.6667C21.3969 13.6667 21.8451 13.4735 22.1756 13.1297C22.5061 12.7859 22.6917 12.3196 22.6917 11.8333C22.6917 11.3471 22.5061 10.8808 22.1756 10.537C21.8451 10.1932 21.3969 10 20.9296 10ZM27.097 10C26.6297 10 26.1815 10.1932 25.851 10.537C25.5206 10.8808 25.3349 11.3471 25.3349 11.8333C25.3349 12.3196 25.5206 12.7859 25.851 13.1297C26.1815 13.4735 26.6297 13.6667 27.097 13.6667C27.5644 13.6667 28.0126 13.4735 28.343 13.1297C28.6735 12.7859 28.8592 12.3196 28.8592 11.8333C28.8592 11.3471 28.6735 10.8808 28.343 10.537C28.0126 10.1932 27.5644 10 27.097 10ZM14.7621 15.5C14.2948 15.5 13.8466 15.6932 13.5161 16.037C13.1857 16.3808 13 16.8471 13 17.3333C13 17.8196 13.1857 18.2859 13.5161 18.6297C13.8466 18.9735 14.2948 19.1667 14.7621 19.1667C15.2295 19.1667 15.6777 18.9735 16.0081 18.6297C16.3386 18.2859 16.5243 17.8196 16.5243 17.3333C16.5243 16.8471 16.3386 16.3808 16.0081 16.037C15.6777 15.6932 15.2295 15.5 14.7621 15.5ZM27.097 15.5C26.6297 15.5 26.1815 15.6932 25.851 16.037C25.5206 16.3808 25.3349 16.8471 25.3349 17.3333C25.3349 17.8196 25.5206 18.2859 25.851 18.6297C26.1815 18.9735 26.6297 19.1667 27.097 19.1667C27.5644 19.1667 28.0126 18.9735 28.343 18.6297C28.6735 18.2859 28.8592 17.8196 28.8592 17.3333C28.8592 16.8471 28.6735 16.3808 28.343 16.037C28.0126 15.6932 27.5644 15.5 27.097 15.5ZM20.9296 14.8684C20.4015 14.8684 19.895 15.0867 19.5216 15.4752C19.1482 15.8637 18.9384 16.3906 18.9384 16.9401V24.3321L16.5798 23.8462C16.2586 23.7806 15.926 23.8153 15.6238 23.9462C15.3216 24.077 15.0635 24.2981 14.882 24.5814L14.0449 25.8877L17.8326 31.0137C18.0596 31.3203 18.3512 31.5687 18.685 31.7397C19.0187 31.9107 19.3857 31.9998 19.7578 32H26.001C27.0468 32 27.9746 31.3033 28.305 30.2721L29.8759 25.3679C30.0518 24.8174 30.0404 24.2207 29.8438 23.6778C29.6471 23.1349 29.2771 22.6788 28.7957 22.386L25.6019 20.4463C25.2301 20.2207 24.8075 20.1018 24.3772 20.1017H22.9208V16.941C22.9209 16.6689 22.8695 16.3994 22.7695 16.1479C22.6695 15.8965 22.5228 15.668 22.3379 15.4755C22.153 15.283 21.9334 15.1304 21.6918 15.0262C21.4501 14.922 21.1911 14.8684 20.9296 14.8684Z" fill="#624EFC"/>
</svg>
