<svg width="44" height="44" viewBox="0 0 44 44" fill="none" xmlns="http://www.w3.org/2000/svg">
<rect opacity="0.15" width="44" height="44" rx="12" fill="#624EFC"/>
<path d="M28.662 11H22.4022L26.3853 16.5128L28.662 11ZM15.3853 11L17.662 16.5128L21.6452 11H15.3853ZM22.0237 13.0954L18.9957 17.2857H25.0516L22.0237 13.0954ZM29.9224 11.936L27.7134 17.2857H33L29.9224 11.936ZM14.1249 11.936L11 17.2857H16.3339L14.1249 11.936ZM16.8515 18.8571H11.0473L21.5884 33H21.6135L16.8515 18.8571ZM27.1958 18.8571L22.4339 33H22.4589L33 18.8571H27.1958ZM25.4959 18.8571H18.5514L22.0237 29.0714L25.4959 18.8571Z" fill="#624EFC"/>
</svg>
