<svg width="28" height="28" viewBox="0 0 28 28" fill="none" xmlns="http://www.w3.org/2000/svg">
<path d="M0.642066 25.386C0.287212 25.386 0 25.0978 0 24.7429C0 24.74 7.0768e-05 24.737 0.000110222 24.7341C7.13929e-05 24.7311 0 24.7282 0 24.7252V2.92101C0 2.55575 0.295538 2.26021 0.660797 2.26021C1.02606 2.26021 1.32159 2.55575 1.32159 2.92101V24.1008H27.1072C27.4621 24.1008 27.7493 24.3881 27.7493 24.7429C27.7493 25.0978 27.4621 25.386 27.1072 25.386H0.642066ZM20.9769 21.5315C20.339 21.5315 19.8208 21.0133 19.8208 20.3754V7.27082C19.8208 6.63187 20.339 6.11468 20.9769 6.11468H23.2892C23.9281 6.11468 24.4464 6.63187 24.4464 7.27082V20.3754C24.4464 21.0133 23.9281 21.5315 23.2892 21.5315H20.9769ZM13.0484 21.5315C12.4105 21.5315 11.8923 21.0133 11.8923 20.3754V9.84012C11.8923 9.20118 12.4105 8.68399 13.0484 8.68399H15.3617C15.9996 8.68399 16.5178 9.20118 16.5178 9.84012V20.3754C16.5178 21.0133 15.9996 21.5315 15.3617 21.5315H13.0484ZM5.12092 21.5315C4.48197 21.5315 3.96374 21.0133 3.96374 20.3754V13.6946C3.96374 13.0557 4.48197 12.5385 5.12092 12.5385H7.43318C8.07109 12.5385 8.58932 13.0557 8.58932 13.6946V20.3754C8.58932 21.0133 8.07109 21.5315 7.43318 21.5315H5.12092Z" fill="#624EFC"/>
</svg>
