<svg width="7" height="13" viewBox="0 0 7 13" fill="none" xmlns="http://www.w3.org/2000/svg">
<path fill-rule="evenodd" clip-rule="evenodd" d="M6.73276 5.79768C6.90387 5.98078 7 6.22909 7 6.488C7 6.74691 6.90387 6.99522 6.73276 7.17833L1.56929 12.7019C1.48509 12.7952 1.38438 12.8696 1.27302 12.9207C1.16166 12.9719 1.04188 12.9988 0.920688 13C0.799493 13.0011 0.679302 12.9764 0.567127 12.9273C0.454953 12.8782 0.353041 12.8057 0.26734 12.714C0.181639 12.6223 0.113864 12.5133 0.0679696 12.3933C0.0220754 12.2733 -0.00101869 12.1447 3.4463e-05 12.0151C0.00108762 11.8855 0.0262672 11.7573 0.0741039 11.6382C0.121941 11.5191 0.191476 11.4113 0.278654 11.3213L4.7968 6.488L0.278654 1.65474C0.112388 1.47059 0.0203869 1.22394 0.0224665 0.967932C0.0245462 0.711919 0.12054 0.467021 0.289772 0.285986C0.459005 0.10495 0.687936 0.00226116 0.927258 3.62396e-05C1.16658 -0.00218868 1.39714 0.0962286 1.56929 0.274091L6.73276 5.79768Z" fill="#624EFC"/>
</svg>
