<svg width="44" height="44" viewBox="0 0 44 44" fill="none" xmlns="http://www.w3.org/2000/svg">
<rect opacity="0.15" width="44" height="44" rx="12" fill="#624EFC"/>
<path d="M26 27.5V29.5H12V27.5C12 27.5 12 23.5 19 23.5C26 23.5 26 27.5 26 27.5ZM22.5 18C22.5 17.3078 22.2947 16.6311 21.9101 16.0555C21.5256 15.4799 20.9789 15.0313 20.3394 14.7664C19.6999 14.5015 18.9961 14.4322 18.3172 14.5673C17.6382 14.7023 17.0146 15.0356 16.5251 15.5251C16.0356 16.0146 15.7023 16.6383 15.5673 17.3172C15.4322 17.9961 15.5015 18.6999 15.7664 19.3394C16.0313 19.9789 16.4799 20.5256 17.0555 20.9102C17.6311 21.2947 18.3078 21.5 19 21.5C19.9283 21.5 20.8185 21.1313 21.4749 20.4749C22.1313 19.8185 22.5 18.9283 22.5 18ZM25.94 23.5C26.5547 23.9758 27.0578 24.5804 27.4137 25.2715C27.7696 25.9626 27.9697 26.7233 28 27.5V29.5H32V27.5C32 27.5 32 23.87 25.94 23.5ZM25 14.5C24.3118 14.4968 23.6388 14.7025 23.07 15.09C23.6774 15.9387 24.0041 16.9563 24.0041 18C24.0041 19.0437 23.6774 20.0613 23.07 20.91C23.6388 21.2975 24.3118 21.5032 25 21.5C25.9283 21.5 26.8185 21.1313 27.4749 20.4749C28.1313 19.8185 28.5 18.9283 28.5 18C28.5 17.0717 28.1313 16.1815 27.4749 15.5251C26.8185 14.8688 25.9283 14.5 25 14.5Z" fill="#624EFC"/>
</svg>
