<svg width="44" height="44" viewBox="0 0 44 44" fill="none" xmlns="http://www.w3.org/2000/svg">
<rect opacity="0.15" width="44" height="44" rx="12" fill="#624EFC"/>
<path d="M17 31C16.45 31 15.9793 30.8043 15.588 30.413C15.1967 30.0217 15.0007 29.5507 15 29V16C14.7167 16 14.4793 15.904 14.288 15.712C14.0967 15.52 14.0007 15.2827 14 15C13.9993 14.7173 14.0953 14.48 14.288 14.288C14.4807 14.096 14.718 14 15 14H19C19 13.7167 19.096 13.4793 19.288 13.288C19.48 13.0967 19.7173 13.0007 20 13H24C24.2833 13 24.521 13.096 24.713 13.288C24.905 13.48 25.0007 13.7173 25 14H29C29.2833 14 29.521 14.096 29.713 14.288C29.905 14.48 30.0007 14.7173 30 15C29.9993 15.2827 29.9033 15.5203 29.712 15.713C29.5207 15.9057 29.2833 16.0013 29 16V29C29 29.55 28.8043 30.021 28.413 30.413C28.0217 30.805 27.5507 31.0007 27 31H17ZM20.713 26.712C20.9043 26.5213 21 26.284 21 26V19C21 18.7167 20.904 18.4793 20.712 18.288C20.52 18.0967 20.2827 18.0007 20 18C19.7173 17.9993 19.48 18.0953 19.288 18.288C19.096 18.4807 19 18.718 19 19V26C19 26.2833 19.096 26.521 19.288 26.713C19.48 26.905 19.7173 27.0007 20 27C20.2827 26.9993 20.5203 26.9033 20.713 26.712ZM24.713 26.712C24.9043 26.5213 25 26.284 25 26V19C25 18.7167 24.904 18.4793 24.712 18.288C24.52 18.0967 24.2827 18.0007 24 18C23.7173 17.9993 23.48 18.0953 23.288 18.288C23.096 18.4807 23 18.718 23 19V26C23 26.2833 23.096 26.521 23.288 26.713C23.48 26.905 23.7173 27.0007 24 27C24.2827 26.9993 24.5203 26.9033 24.713 26.712Z" fill="#624EFC"/>
</svg>
