<svg width="43" height="43" viewBox="0 0 43 43" fill="none" xmlns="http://www.w3.org/2000/svg">
<path d="M0 12C0 5.37258 5.37258 0 12 0H31C37.6274 0 43 5.37258 43 12V31C43 37.6274 37.6274 43 31 43H12C5.37258 43 0 37.6274 0 31V12Z" fill="#F2F1FD"/>
<path d="M9 28.6591C9 29.5452 9.34241 30.3949 9.9519 31.0215C10.5614 31.648 11.388 32 12.25 32H31.75C32.612 32 33.4386 31.648 34.0481 31.0215C34.6576 30.3949 35 29.5452 35 28.6591V19.4716H9V28.6591ZM12.8304 24.125C12.8304 23.6503 13.0138 23.1951 13.3403 22.8594C13.6668 22.5238 14.1097 22.3352 14.5714 22.3352H17.3571C17.8189 22.3352 18.2618 22.5238 18.5883 22.8594C18.9148 23.1951 19.0982 23.6503 19.0982 24.125V25.3182C19.0982 25.7929 18.9148 26.2481 18.5883 26.5837C18.2618 26.9194 17.8189 27.108 17.3571 27.108H14.5714C14.1097 27.108 13.6668 26.9194 13.3403 26.5837C13.0138 26.2481 12.8304 25.7929 12.8304 25.3182V24.125ZM31.75 11H12.25C11.388 11 10.5614 11.352 9.9519 11.9785C9.34241 12.6051 9 13.4548 9 14.3409V15.892H35V14.3409C35 13.4548 34.6576 12.6051 34.0481 11.9785C33.4386 11.352 32.612 11 31.75 11Z" fill="#624EFC"/>
</svg>
