<svg width="44" height="44" viewBox="0 0 44 44" fill="none" xmlns="http://www.w3.org/2000/svg">
<rect opacity="0.15" width="44" height="44" rx="22" fill="#624EFC"/>
<path d="M8 22.5C8 24.2815 8.67856 25.8102 10.0357 27.0861C11.3928 28.362 13.0188 29 14.9136 29C16.8084 29 18.4344 28.362 19.7915 27.0861L22.0192 25.1L24.2469 27.1222C25.5784 28.3741 27.1916 29 29.0864 29C30.9556 29 32.5752 28.362 33.9452 27.0861C35.3151 25.8102 36 24.2815 36 22.5C36 20.7185 35.3151 19.1898 33.9452 17.9139C32.5753 16.638 30.9557 16 29.0864 16C27.1916 16 25.5656 16.638 24.2085 17.9139L22.0192 19.9L19.753 17.8778C18.4215 16.626 16.8084 16.0001 14.9136 16.0001C13.0188 16.0001 11.3928 16.638 10.0357 17.9139C8.67856 19.1898 8 20.7185 8 22.5ZM14.9136 25.2446C14.1198 25.2446 13.4348 24.9738 12.8587 24.4321C12.2825 23.8905 11.9945 23.2465 11.9946 22.5001C11.9946 21.7298 12.2762 21.0798 12.8395 20.5501C13.4028 20.0205 14.0942 19.7557 14.9136 19.7557C15.7329 19.7557 16.4242 20.0205 16.9877 20.5501L19.1001 22.5001L16.9877 24.414C16.3987 24.9677 15.7073 25.2446 14.9136 25.2446ZM31.1605 20.5501C31.7238 21.0798 32.0054 21.7298 32.0055 22.5001C32.0055 23.2705 31.7238 23.9205 31.1605 24.4501C30.5971 24.9797 29.9122 25.2445 29.1057 25.2446C28.2991 25.2446 27.6141 24.9798 27.0507 24.4501L24.8999 22.5L27.0123 20.5861C27.5757 20.0564 28.267 19.7857 29.0864 19.7737C29.9058 19.7616 30.5972 20.0204 31.1605 20.5501Z" fill="#624EFC"/>
</svg>
