<svg width="44" height="44" viewBox="0 0 44 44" fill="none" xmlns="http://www.w3.org/2000/svg">
<rect opacity="0.15" width="44" height="44" rx="12" fill="#624EFC"/>
<path fill-rule="evenodd" clip-rule="evenodd" d="M17.245 11.9998H26.755C27.914 11.9998 28.493 11.9998 28.961 12.1628C29.4021 12.3195 29.8011 12.5756 30.1273 12.9114C30.4535 13.2471 30.698 13.6534 30.842 14.0988C31 14.5808 31 15.1768 31 16.3698V30.3738C31 31.2318 30.015 31.6878 29.392 31.1178C29.2172 30.9563 28.988 30.8666 28.75 30.8666C28.512 30.8666 28.2828 30.9563 28.108 31.1178L27.625 31.5598C27.3188 31.8429 26.9171 32.0002 26.5 32.0002C26.0829 32.0002 25.6812 31.8429 25.375 31.5598C25.0688 31.2766 24.6671 31.1193 24.25 31.1193C23.8329 31.1193 23.4312 31.2766 23.125 31.5598C22.8188 31.8429 22.4171 32.0002 22 32.0002C21.5829 32.0002 21.1812 31.8429 20.875 31.5598C20.5688 31.2766 20.1671 31.1193 19.75 31.1193C19.3329 31.1193 18.9312 31.2766 18.625 31.5598C18.3188 31.8429 17.9171 32.0002 17.5 32.0002C17.0829 32.0002 16.6812 31.8429 16.375 31.5598L15.892 31.1178C15.7172 30.9563 15.488 30.8666 15.25 30.8666C15.012 30.8666 14.7828 30.9563 14.608 31.1178C13.985 31.6878 13 31.2318 13 30.3738V16.3698C13 15.1768 13 14.5798 13.158 14.0998C13.458 13.1868 14.153 12.4708 15.039 12.1628C15.507 11.9998 16.086 11.9998 17.245 11.9998ZM25.06 18.4998C25.1257 18.4262 25.1762 18.3405 25.2087 18.2474C25.2412 18.1544 25.2551 18.0558 25.2495 17.9574C25.244 17.8589 25.2191 17.7626 25.1762 17.6738C25.1334 17.585 25.0735 17.5054 25 17.4398C24.9265 17.3741 24.8407 17.3236 24.7476 17.2911C24.6546 17.2586 24.556 17.2447 24.4576 17.2503C24.3591 17.2558 24.2628 17.2807 24.174 17.3235C24.0852 17.3664 24.0057 17.4262 23.94 17.4998L20.929 20.8738L20.059 19.8998C19.926 19.7529 19.7403 19.6645 19.5424 19.6541C19.3446 19.6436 19.1506 19.7119 19.0029 19.844C18.8552 19.9761 18.7658 20.1613 18.7542 20.3591C18.7426 20.557 18.8098 20.7513 18.941 20.8998L20.369 22.4998C20.4394 22.5786 20.5256 22.6417 20.622 22.6848C20.7184 22.728 20.8229 22.7503 20.9285 22.7503C21.0341 22.7503 21.1386 22.728 21.235 22.6848C21.3314 22.6417 21.4176 22.5786 21.488 22.4998L25.06 18.4998ZM17.5 24.7498C17.3011 24.7498 17.1103 24.8288 16.9697 24.9695C16.829 25.1101 16.75 25.3009 16.75 25.4998C16.75 25.6987 16.829 25.8895 16.9697 26.0301C17.1103 26.1708 17.3011 26.2498 17.5 26.2498H26.5C26.6989 26.2498 26.8897 26.1708 27.0303 26.0301C27.171 25.8895 27.25 25.6987 27.25 25.4998C27.25 25.3009 27.171 25.1101 27.0303 24.9695C26.8897 24.8288 26.6989 24.7498 26.5 24.7498H17.5Z" fill="#624EFC"/>
</svg>
