<svg width="44" height="44" viewBox="0 0 44 44" fill="none" xmlns="http://www.w3.org/2000/svg">
<rect opacity="0.15" width="44" height="44" rx="12" fill="#624EFC"/>
<path d="M22 11C23.4587 11 24.8576 11.5795 25.8891 12.6109C26.9205 13.6424 27.5 15.0413 27.5 16.5C27.5 17.9587 26.9205 19.3576 25.8891 20.3891C24.8576 21.4205 23.4587 22 22 22C20.5413 22 19.1424 21.4205 18.1109 20.3891C17.0795 19.3576 16.5 17.9587 16.5 16.5C16.5 15.0413 17.0795 13.6424 18.1109 12.6109C19.1424 11.5795 20.5413 11 22 11ZM22 24.75C28.0775 24.75 33 27.2113 33 30.25V33H11V30.25C11 27.2113 15.9225 24.75 22 24.75Z" fill="#624EFC"/>
</svg>
