<svg width="47" height="48" viewBox="0 0 47 48" fill="none" xmlns="http://www.w3.org/2000/svg">
<g filter="url(#filter0_d_131_729)">
<path d="M4.17993 11.9527C4.17993 6.22907 8.81989 1.58911 14.5436 1.58911H31.8163C37.54 1.58911 42.1799 6.22907 42.1799 11.9527V30.2255C42.1799 35.9492 37.54 40.5891 31.8163 40.5891H14.5436C8.81989 40.5891 4.17993 35.9492 4.17993 30.2255V11.9527Z" fill="#F2F1FD"/>
</g>
<path d="M32.1799 26.9827C32.1799 27.1602 32.1088 27.3304 31.9822 27.4559C31.8556 27.5814 31.6839 27.6519 31.5049 27.6519H26.9149C26.7646 28.2077 26.4335 28.6988 25.973 29.049C25.5125 29.3993 24.9483 29.5891 24.3679 29.5891C23.7875 29.5891 23.2233 29.3993 22.7628 29.049C22.3023 28.6988 21.9712 28.2077 21.8209 27.6519H14.8549C14.6759 27.6519 14.5042 27.5814 14.3776 27.4559C14.251 27.3304 14.1799 27.1602 14.1799 26.9827C14.1799 26.8052 14.251 26.635 14.3776 26.5095C14.5042 26.384 14.6759 26.3135 14.8549 26.3135H21.8209C21.9712 25.7577 22.3023 25.2666 22.7628 24.9163C23.2233 24.5661 23.7875 24.3763 24.3679 24.3763C24.9483 24.3763 25.5125 24.5661 25.973 24.9163C26.4335 25.2666 26.7646 25.7577 26.9149 26.3135H31.5049C31.6839 26.3135 31.8556 26.384 31.9822 26.5095C32.1088 26.635 32.1799 26.8052 32.1799 26.9827ZM32.1799 15.1955C32.1799 15.373 32.1088 15.5432 31.9822 15.6687C31.8556 15.7942 31.6839 15.8648 31.5049 15.8648H29.2999C29.1495 16.4205 28.8185 16.9116 28.358 17.2619C27.8975 17.6121 27.3333 17.802 26.7529 17.802C26.1725 17.802 25.6083 17.6121 25.1478 17.2619C24.6873 16.9116 24.3562 16.4205 24.2059 15.8648H14.8549C14.7663 15.8648 14.6785 15.8474 14.5966 15.8138C14.5147 15.7802 14.4403 15.7309 14.3776 15.6687C14.315 15.6066 14.2652 15.5328 14.2313 15.4516C14.1974 15.3704 14.1799 15.2834 14.1799 15.1955C14.1799 15.1077 14.1974 15.0206 14.2313 14.9394C14.2652 14.8582 14.315 14.7845 14.3776 14.7223C14.4403 14.6602 14.5147 14.6109 14.5966 14.5773C14.6785 14.5436 14.7663 14.5263 14.8549 14.5263H24.2059C24.3562 13.9705 24.6873 13.4794 25.1478 13.1292C25.6083 12.779 26.1725 12.5891 26.7529 12.5891C27.3333 12.5891 27.8975 12.779 28.358 13.1292C28.8185 13.4794 29.1495 13.9705 29.2999 14.5263H31.5049C31.5938 14.5251 31.6822 14.5416 31.7646 14.5748C31.847 14.608 31.9219 14.6573 31.9849 14.7197C32.0478 14.782 32.0975 14.8563 32.131 14.938C32.1644 15.0198 32.1811 15.1073 32.1799 15.1955ZM32.1799 21.0847C32.1811 21.1729 32.1644 21.2604 32.131 21.3422C32.0975 21.4239 32.0478 21.4982 31.9849 21.5605C31.9219 21.6229 31.847 21.6722 31.7646 21.7054C31.6822 21.7386 31.5938 21.7551 31.5049 21.7539H20.9749C20.8246 22.3097 20.4935 22.8007 20.033 23.151C19.5725 23.5012 19.0083 23.6911 18.4279 23.6911C17.8475 23.6911 17.2833 23.5012 16.8228 23.151C16.3623 22.8007 16.0313 22.3097 15.8809 21.7539H14.8549C14.6759 21.7539 14.5042 21.6834 14.3776 21.5579C14.251 21.4324 14.1799 21.2621 14.1799 21.0847C14.1799 20.9072 14.251 20.7369 14.3776 20.6114C14.5042 20.4859 14.6759 20.4154 14.8549 20.4154H15.8809C16.0313 19.8596 16.3623 19.3686 16.8228 19.0183C17.2833 18.6681 17.8475 18.4782 18.4279 18.4782C19.0083 18.4782 19.5725 18.6681 20.033 19.0183C20.4935 19.3686 20.8246 19.8596 20.9749 20.4154H31.5049C31.6839 20.4154 31.8556 20.4859 31.9822 20.6114C32.1088 20.7369 32.1799 20.9072 32.1799 21.0847Z" fill="#624EFC"/>
<defs>
<filter id="filter0_d_131_729" x="-6.81877e-05" y="2.0504e-05" width="46.36" height="47.36" filterUnits="userSpaceOnUse" color-interpolation-filters="sRGB">
<feFlood flood-opacity="0" result="BackgroundImageFix"/>
<feColorMatrix in="SourceAlpha" type="matrix" values="0 0 0 0 0 0 0 0 0 0 0 0 0 0 0 0 0 0 127 0" result="hardAlpha"/>
<feOffset dy="2.59091"/>
<feGaussianBlur stdDeviation="2.09"/>
<feComposite in2="hardAlpha" operator="out"/>
<feColorMatrix type="matrix" values="0 0 0 0 0 0 0 0 0 0 0 0 0 0 0 0 0 0 0.2 0"/>
<feBlend mode="normal" in2="BackgroundImageFix" result="effect1_dropShadow_131_729"/>
<feBlend mode="normal" in="SourceGraphic" in2="effect1_dropShadow_131_729" result="shape"/>
</filter>
</defs>
</svg>
