<svg width="44" height="44" viewBox="0 0 44 44" fill="none" xmlns="http://www.w3.org/2000/svg">
<rect opacity="0.15" width="44" height="44" rx="12" fill="#34C759"/>
<path d="M22 10C23.1016 10 24.1641 10.1406 25.1875 10.4219C26.2109 10.7031 27.1641 11.1094 28.0469 11.6406C28.9297 12.1719 29.7383 12.7969 30.4727 13.5156C31.207 14.2344 31.8359 15.043 32.3594 15.9414C32.8828 16.8398 33.2852 17.7969 33.5664 18.8125C33.8477 19.8281 33.9922 20.8906 34 22C34 23.1016 33.8594 24.1641 33.5781 25.1875C33.2969 26.2109 32.8906 27.1641 32.3594 28.0469C31.8281 28.9297 31.2031 29.7383 30.4844 30.4727C29.7656 31.207 28.957 31.8359 28.0586 32.3594C27.1602 32.8828 26.2031 33.2852 25.1875 33.5664C24.1719 33.8477 23.1094 33.9922 22 34C20.8984 34 19.8359 33.8594 18.8125 33.5781C17.7891 33.2969 16.8359 32.8906 15.9531 32.3594C15.0703 31.8281 14.2617 31.2031 13.5273 30.4844C12.793 29.7656 12.1641 28.957 11.6406 28.0586C11.1172 27.1602 10.7148 26.2031 10.4336 25.1875C10.1523 24.1719 10.0078 23.1094 10 22C10 20.8984 10.1406 19.8359 10.4219 18.8125C10.7031 17.7891 11.1094 16.8359 11.6406 15.9531C12.1719 15.0703 12.7969 14.2617 13.5156 13.5273C14.2344 12.793 15.043 12.1641 15.9414 11.6406C16.8398 11.1172 17.7969 10.7148 18.8125 10.4336C19.8281 10.1523 20.8906 10.0078 22 10ZM22 28.2578C22.6016 28.2578 23.1836 28.1758 23.7461 28.0117C24.3086 27.8477 24.8398 27.6055 25.3398 27.2852C25.8398 26.9648 26.2852 26.5898 26.6758 26.1602C27.0664 25.7305 27.3945 25.2383 27.6602 24.6836L25.832 23.8164C25.6523 24.1836 25.4297 24.5156 25.1641 24.8125C24.8984 25.1094 24.5977 25.3633 24.2617 25.5742C23.9258 25.7852 23.5664 25.9492 23.1836 26.0664C22.8008 26.1836 22.4062 26.2422 22 26.2422C21.4375 26.2422 20.9023 26.1328 20.3945 25.9141C19.8867 25.6953 19.4297 25.3906 19.0234 25H20.5V23.5H16V28H17.5V26.3359C18.0859 26.9453 18.7695 27.418 19.5508 27.7539C20.332 28.0898 21.1484 28.2578 22 28.2578ZM28 20.5V16H26.5V17.6641C25.9141 17.0547 25.2305 16.582 24.4492 16.2461C23.668 15.9102 22.8516 15.7422 22 15.7422C21.3984 15.7422 20.8164 15.8242 20.2539 15.9883C19.6914 16.1523 19.1602 16.3945 18.6602 16.7148C18.1602 17.0352 17.7148 17.4102 17.3242 17.8398C16.9336 18.2695 16.6055 18.7617 16.3398 19.3164L18.168 20.1836C18.3398 19.8164 18.5586 19.4844 18.8242 19.1875C19.0898 18.8906 19.3945 18.6367 19.7383 18.4258C20.082 18.2148 20.4414 18.0508 20.8164 17.9336C21.1914 17.8164 21.5859 17.7578 22 17.7578C22.5625 17.7578 23.0977 17.8672 23.6055 18.0859C24.1133 18.3047 24.5703 18.6094 24.9766 19H23.5V20.5H28Z" fill="#34C759"/>
</svg>
