<svg width="47" height="48" viewBox="0 0 47 48" fill="none" xmlns="http://www.w3.org/2000/svg">
<g filter="url(#filter0_d_322_1114)">
<path d="M4.18018 11.9527C4.18018 6.22907 8.82013 1.58911 14.5438 1.58911H31.8165C37.5402 1.58911 42.1802 6.22907 42.1802 11.9527V30.2255C42.1802 35.9492 37.5402 40.5891 31.8165 40.5891H14.5438C8.82013 40.5891 4.18018 35.9492 4.18018 30.2255V11.9527Z" fill="#F2F1FD"/>
</g>
<path d="M24.1802 14.5891C24.1802 14.3239 24.0748 14.0695 23.8873 13.882C23.6997 13.6945 23.4454 13.5891 23.1802 13.5891C22.915 13.5891 22.6606 13.6945 22.4731 13.882C22.2855 14.0695 22.1802 14.3239 22.1802 14.5891V19.5891H17.1802C16.915 19.5891 16.6606 19.6945 16.4731 19.882C16.2855 20.0695 16.1802 20.3239 16.1802 20.5891C16.1802 20.8543 16.2855 21.1087 16.4731 21.2962C16.6606 21.4838 16.915 21.5891 17.1802 21.5891H22.1802V26.5891C22.1802 26.8543 22.2855 27.1087 22.4731 27.2962C22.6606 27.4838 22.915 27.5891 23.1802 27.5891C23.4454 27.5891 23.6997 27.4838 23.8873 27.2962C24.0748 27.1087 24.1802 26.8543 24.1802 26.5891V21.5891H29.1802C29.4454 21.5891 29.6997 21.4838 29.8873 21.2962C30.0748 21.1087 30.1802 20.8543 30.1802 20.5891C30.1802 20.3239 30.0748 20.0695 29.8873 19.882C29.6997 19.6945 29.4454 19.5891 29.1802 19.5891H24.1802V14.5891Z" fill="black"/>
<defs>
<filter id="filter0_d_322_1114" x="0.000175953" y="2.0504e-05" width="46.36" height="47.36" filterUnits="userSpaceOnUse" color-interpolation-filters="sRGB">
<feFlood flood-opacity="0" result="BackgroundImageFix"/>
<feColorMatrix in="SourceAlpha" type="matrix" values="0 0 0 0 0 0 0 0 0 0 0 0 0 0 0 0 0 0 127 0" result="hardAlpha"/>
<feOffset dy="2.59091"/>
<feGaussianBlur stdDeviation="2.09"/>
<feComposite in2="hardAlpha" operator="out"/>
<feColorMatrix type="matrix" values="0 0 0 0 0 0 0 0 0 0 0 0 0 0 0 0 0 0 0.2 0"/>
<feBlend mode="normal" in2="BackgroundImageFix" result="effect1_dropShadow_322_1114"/>
<feBlend mode="normal" in="SourceGraphic" in2="effect1_dropShadow_322_1114" result="shape"/>
</filter>
</defs>
</svg>
