<svg width="44" height="44" viewBox="0 0 44 44" fill="none" xmlns="http://www.w3.org/2000/svg">
<rect opacity="0.15" width="44" height="44" rx="12" fill="#624EFC"/>
<path d="M20.151 25.2739L20.142 25.2529C20.0068 25.2159 19.8727 25.1749 19.74 25.1299L19.73 25.1259C18.3486 24.6532 17.1495 23.7605 16.3006 22.5725C15.4518 21.3846 14.9956 19.9609 14.996 18.5009C14.9956 16.709 15.6823 14.9851 16.9148 13.6844C18.1473 12.3837 19.8316 11.6052 21.621 11.5092C23.4103 11.4132 25.1683 12.007 26.5329 13.1684C27.8975 14.3298 28.7647 15.9702 28.956 17.7519C29 18.1639 28.66 18.5009 28.246 18.5009C27.832 18.5009 27.501 18.1629 27.446 17.7529C27.313 16.7851 26.9247 15.8703 26.321 15.1023C25.7173 14.3344 24.9201 13.741 24.0111 13.3832C23.1022 13.0254 22.1143 12.9161 21.1492 13.0665C20.184 13.2169 19.2763 13.6217 18.5193 14.2391C17.7623 14.8565 17.1834 15.6643 16.8421 16.5795C16.5007 17.4948 16.4092 18.4844 16.577 19.4467C16.7448 20.409 17.1657 21.3093 17.7967 22.0551C18.4276 22.8008 19.2458 23.3651 20.167 23.6899C20.3526 23.2704 20.6767 22.9275 21.0851 22.7185C21.4934 22.5096 21.9612 22.4474 22.4099 22.5423C22.8587 22.6373 23.2612 22.8836 23.5499 23.24C23.8387 23.5964 23.9962 24.0412 23.996 24.4999C23.9965 24.9621 23.8368 25.4103 23.5441 25.7681C23.2514 26.1259 22.8439 26.3713 22.3907 26.4626C21.9375 26.5538 21.4667 26.4852 21.0584 26.2685C20.6501 26.0518 20.3294 25.7003 20.151 25.2739ZM19.126 26.5039C17.9469 26.0804 16.8761 25.4015 15.99 24.5159C15.4421 24.5796 14.9368 24.8424 14.5699 25.2542C14.203 25.6661 14.0002 26.1983 14 26.7499V27.6699C14 28.2419 14.178 28.7999 14.51 29.2659C16.052 31.4299 18.576 32.5009 21.996 32.5009C25.416 32.5009 27.941 31.4289 29.486 29.2659C29.8195 28.7994 29.9989 28.2403 29.999 27.6669V26.7489C29.999 26.1525 29.7622 25.5805 29.3407 25.1586C28.9192 24.7367 28.3474 24.4994 27.751 24.4989H25.496C25.4962 25.2437 25.2587 25.9692 24.8181 26.5698C24.3775 27.1704 23.7569 27.6148 23.0463 27.8383C22.3358 28.0618 21.5725 28.0528 20.8675 27.8127C20.1624 27.5725 19.5523 27.1147 19.126 26.5039ZM25.996 18.5009C25.996 17.9163 25.8679 17.3388 25.6206 16.8091C25.3734 16.2794 25.0131 15.8103 24.565 15.4349C24.1491 15.0869 23.6667 14.8272 23.1473 14.6715C22.6279 14.5157 22.0822 14.4672 21.5435 14.5289C21.0047 14.5906 20.4842 14.7612 20.0134 15.0303C19.5426 15.2994 19.1315 15.6615 18.805 16.0944C18.4784 16.5273 18.2433 17.0221 18.114 17.5488C17.9846 18.0754 17.9637 18.6228 18.0525 19.1577C18.1412 19.6927 18.3378 20.204 18.6303 20.6606C18.9229 21.1172 19.3052 21.5096 19.754 21.8139C20.3831 21.2888 21.1765 21.0011 21.996 21.0009C22.849 21.0009 23.631 21.3059 24.239 21.8139C24.7803 21.4473 25.2235 20.9536 25.5298 20.376C25.8361 19.7985 25.9962 19.1546 25.996 18.5009Z" fill="#624EFC"/>
</svg>
