<svg width="32" height="32" viewBox="0 0 32 32" fill="none" xmlns="http://www.w3.org/2000/svg">
<circle opacity="0.1" cx="16" cy="16" r="16" fill="#624EFC"/>
<path fill-rule="evenodd" clip-rule="evenodd" d="M19.7328 14.7977C19.9039 14.9808 20 15.2291 20 15.488C20 15.7469 19.9039 15.9952 19.7328 16.1783L14.5693 21.7019C14.4851 21.7952 14.3844 21.8696 14.273 21.9207C14.1617 21.9719 14.0419 21.9988 13.9207 22C13.7995 22.0011 13.6793 21.9764 13.5671 21.9273C13.455 21.8782 13.353 21.8057 13.2673 21.714C13.1816 21.6223 13.1139 21.5133 13.068 21.3933C13.0221 21.2733 12.999 21.1447 13 21.0151C13.0011 20.8855 13.0263 20.7573 13.0741 20.6382C13.1219 20.5191 13.1915 20.4113 13.2787 20.3213L17.7968 15.488L13.2787 10.6547C13.1124 10.4706 13.0204 10.2239 13.0225 9.96793C13.0245 9.71192 13.1205 9.46702 13.2898 9.28599C13.459 9.10495 13.6879 9.00226 13.9273 9.00004C14.1666 8.99781 14.3971 9.09623 14.5693 9.27409L19.7328 14.7977Z" fill="#624EFC"/>
</svg>
