<svg width="32" height="32" viewBox="0 0 32 32" fill="none" xmlns="http://www.w3.org/2000/svg">
<rect width="32" height="32" rx="5" fill="#7143EA" fill-opacity="0.1"/>
<path d="M9.52637 13.6421C9.52637 12.3716 9.52637 11.7369 9.92115 11.3422C10.3159 10.9474 10.9505 10.9474 12.2211 10.9474H20.3053C21.5759 10.9474 22.2105 10.9474 22.6053 11.3422C23.0001 11.7369 23.0001 12.3716 23.0001 13.6421C23.0001 13.9594 23.0001 14.1184 22.9017 14.2175C22.8027 14.3158 22.643 14.3158 22.3264 14.3158H10.2001C9.88275 14.3158 9.72376 14.3158 9.62473 14.2175C9.52637 14.1184 9.52637 13.9588 9.52637 13.6421ZM9.52637 19.7053C9.52637 20.9759 9.52637 21.6105 9.92115 22.0053C10.3159 22.4 10.9505 22.4 12.2211 22.4H20.3053C21.5759 22.4 22.2105 22.4 22.6053 22.0053C23.0001 21.6105 23.0001 20.9759 23.0001 19.7053V16.3369C23.0001 16.0196 23.0001 15.8606 22.9017 15.7615C22.8027 15.6632 22.643 15.6632 22.3264 15.6632H10.2001C9.88275 15.6632 9.72376 15.6632 9.62473 15.7615C9.52637 15.8606 9.52637 16.0202 9.52637 16.3369V19.7053Z" fill="#624EFC"/>
<path d="M12.8948 9.60001V11.6211V9.60001ZM19.6316 9.60001V11.6211V9.60001Z" fill="#624EFC"/>
<path d="M12.8948 9.60001V11.6211M19.6316 9.60001V11.6211" stroke="#624EFC" stroke-width="2" stroke-linecap="round"/>
</svg>
