<svg width="47" height="47" viewBox="0 0 47 47" fill="none" xmlns="http://www.w3.org/2000/svg">
<g filter="url(#filter0_dii_85_773)">
<path d="M4.18005 11.9527C4.18005 6.22904 8.82001 1.58908 14.5437 1.58908H31.8164C37.5401 1.58908 42.1801 6.22904 42.1801 11.9527V29.2254C42.1801 34.9491 37.5401 39.5891 31.8164 39.5891H14.5437C8.82001 39.5891 4.18005 34.9491 4.18005 29.2254V11.9527Z" fill="#826BF5"/>
</g>
<g filter="url(#filter1_d_85_773)">
<path d="M13.1801 24.5891L17.7661 20.0031C18.1411 19.6281 18.6497 19.4175 19.1801 19.4175C19.7104 19.4175 20.219 19.6281 20.5941 20.0031L23.7661 23.1751C24.1411 23.55 24.6497 23.7607 25.1801 23.7607C25.7104 23.7607 26.219 23.55 26.5941 23.1751L33.1801 16.5891M28.1801 16.5891H33.1801V21.5891" stroke="white" stroke-width="2" stroke-linecap="round" stroke-linejoin="round" shape-rendering="crispEdges"/>
</g>
<defs>
<filter id="filter0_dii_85_773" x="5.38826e-05" y="-1.00136e-05" width="46.36" height="46.36" filterUnits="userSpaceOnUse" color-interpolation-filters="sRGB">
<feFlood flood-opacity="0" result="BackgroundImageFix"/>
<feColorMatrix in="SourceAlpha" type="matrix" values="0 0 0 0 0 0 0 0 0 0 0 0 0 0 0 0 0 0 127 0" result="hardAlpha"/>
<feOffset dy="2.59091"/>
<feGaussianBlur stdDeviation="2.09"/>
<feComposite in2="hardAlpha" operator="out"/>
<feColorMatrix type="matrix" values="0 0 0 0 0 0 0 0 0 0 0 0 0 0 0 0 0 0 0.2 0"/>
<feBlend mode="normal" in2="BackgroundImageFix" result="effect1_dropShadow_85_773"/>
<feBlend mode="normal" in="SourceGraphic" in2="effect1_dropShadow_85_773" result="shape"/>
<feColorMatrix in="SourceAlpha" type="matrix" values="0 0 0 0 0 0 0 0 0 0 0 0 0 0 0 0 0 0 127 0" result="hardAlpha"/>
<feOffset dy="-1"/>
<feGaussianBlur stdDeviation="2"/>
<feComposite in2="hardAlpha" operator="arithmetic" k2="-1" k3="1"/>
<feColorMatrix type="matrix" values="0 0 0 0 0 0 0 0 0 0 0 0 0 0 0 0 0 0 0.25 0"/>
<feBlend mode="normal" in2="shape" result="effect2_innerShadow_85_773"/>
<feColorMatrix in="SourceAlpha" type="matrix" values="0 0 0 0 0 0 0 0 0 0 0 0 0 0 0 0 0 0 127 0" result="hardAlpha"/>
<feOffset dy="3"/>
<feGaussianBlur stdDeviation="2"/>
<feComposite in2="hardAlpha" operator="arithmetic" k2="-1" k3="1"/>
<feColorMatrix type="matrix" values="0 0 0 0 1 0 0 0 0 1 0 0 0 0 1 0 0 0 0.59 0"/>
<feBlend mode="normal" in2="effect2_innerShadow_85_773" result="effect3_innerShadow_85_773"/>
</filter>
<filter id="filter1_d_85_773" x="9.18005" y="14.5891" width="28" height="16" filterUnits="userSpaceOnUse" color-interpolation-filters="sRGB">
<feFlood flood-opacity="0" result="BackgroundImageFix"/>
<feColorMatrix in="SourceAlpha" type="matrix" values="0 0 0 0 0 0 0 0 0 0 0 0 0 0 0 0 0 0 127 0" result="hardAlpha"/>
<feOffset dy="2"/>
<feGaussianBlur stdDeviation="1.5"/>
<feComposite in2="hardAlpha" operator="out"/>
<feColorMatrix type="matrix" values="0 0 0 0 0 0 0 0 0 0 0 0 0 0 0 0 0 0 0.2 0"/>
<feBlend mode="normal" in2="BackgroundImageFix" result="effect1_dropShadow_85_773"/>
<feBlend mode="normal" in="SourceGraphic" in2="effect1_dropShadow_85_773" result="shape"/>
</filter>
</defs>
</svg>
