<svg width="11" height="11" viewBox="0 0 11 11" fill="none" xmlns="http://www.w3.org/2000/svg">
<path d="M0 4.15788C0 3.16524 -3.13709e-08 2.66945 0.308421 2.36103C0.616842 2.05261 1.11263 2.05261 2.10526 2.05261H8.42105C9.41368 2.05261 9.90947 2.05261 10.2179 2.36103C10.5263 2.66945 10.5263 3.16524 10.5263 4.15788C10.5263 4.40577 10.5263 4.52998 10.4495 4.60735C10.3721 4.68419 10.2474 4.68419 10 4.68419H0.526316C0.278421 4.68419 0.15421 4.68419 0.0768421 4.60735C-4.70563e-08 4.52998 0 4.40524 0 4.15788ZM0 8.89472C0 9.88735 -3.13709e-08 10.3831 0.308421 10.6916C0.616842 11 1.11263 11 2.10526 11H8.42105C9.41368 11 9.90947 11 10.2179 10.6916C10.5263 10.3831 10.5263 9.88735 10.5263 8.89472V6.26314C10.5263 6.01524 10.5263 5.89103 10.4495 5.81366C10.3721 5.73682 10.2474 5.73682 10 5.73682H0.526316C0.278421 5.73682 0.15421 5.73682 0.0768421 5.81366C-4.70563e-08 5.89103 0 6.01577 0 6.26314V8.89472Z" fill="black" fill-opacity="0.7"/>
<path d="M2.63159 1V2.57895V1ZM7.89475 1V2.57895V1Z" fill="black" fill-opacity="0.7"/>
<path d="M2.63159 1V2.57895M7.89475 1V2.57895" stroke="black" stroke-opacity="0.7" stroke-width="2" stroke-linecap="round"/>
</svg>
