<svg width="14" height="12" viewBox="0 0 14 12" fill="none" xmlns="http://www.w3.org/2000/svg">
<path d="M2.1 12V10.6667H11.9V12H2.1ZM2.1 9.66667L1.2075 4.31667C1.18417 4.31667 1.1578 4.31956 1.1284 4.32533C1.099 4.33111 1.07287 4.33378 1.05 4.33333C0.758334 4.33333 0.510535 4.236 0.306601 4.04133C0.102668 3.84667 0.000468257 3.61067 1.59091e-06 3.33333C-0.000465075 3.056 0.101735 2.82 0.306601 2.62533C0.511468 2.43067 0.759268 2.33333 1.05 2.33333C1.34073 2.33333 1.58877 2.43067 1.7941 2.62533C1.99943 2.82 2.1014 3.056 2.1 3.33333C2.1 3.41111 2.09113 3.48333 2.0734 3.55C2.05567 3.61667 2.03537 3.67778 2.0125 3.73333L4.2 4.66667L6.3875 1.81667C6.25916 1.72778 6.15416 1.61111 6.0725 1.46667C5.99083 1.32222 5.95 1.16667 5.95 1C5.95 0.722224 6.0522 0.486001 6.2566 0.291335C6.461 0.0966682 6.7088 -0.000442926 7 1.5186e-06C7.2912 0.000445963 7.53923 0.0977792 7.7441 0.292001C7.94896 0.486224 8.05093 0.722224 8.05 1C8.05 1.16667 8.00916 1.32222 7.9275 1.46667C7.84583 1.61111 7.74083 1.72778 7.6125 1.81667L9.8 4.66667L11.9875 3.73333C11.9642 3.67778 11.9436 3.61667 11.9259 3.55C11.9082 3.48333 11.8995 3.41111 11.9 3.33333C11.9 3.05556 12.0022 2.81933 12.2066 2.62467C12.411 2.43 12.6588 2.33289 12.95 2.33333C13.2412 2.33378 13.4892 2.43111 13.6941 2.62533C13.899 2.81956 14.0009 3.05556 14 3.33333C13.9991 3.61111 13.8971 3.84733 13.6941 4.042C13.4911 4.23667 13.2431 4.33378 12.95 4.33333C12.9267 4.33333 12.9005 4.33067 12.8716 4.32533C12.8427 4.32 12.8163 4.31711 12.7925 4.31667L11.9 9.66667H2.1ZM3.29 8.33333H10.71L11.165 5.55L9.3275 6.31667L7 3.26667L4.6725 6.31667L2.835 5.55L3.29 8.33333Z" fill="#624EFC"/>
</svg>
