<svg width="38" height="39" viewBox="0 0 38 39" fill="none" xmlns="http://www.w3.org/2000/svg">
<path d="M0 10.3636C0 4.63996 4.63996 0 10.3636 0H27.6364C33.36 0 38 4.63996 38 10.3636V28.6364C38 34.36 33.36 39 27.6364 39H10.3636C4.63996 39 0 34.36 0 28.6364V10.3636Z" fill="#F2F1FD"/>
<path d="M14 28C13.45 28 12.9793 27.8043 12.588 27.413C12.1967 27.0217 12.0007 26.5507 12 26V13H11V11H16V10H22V11H27V13H26V26C26 26.55 25.8043 27.021 25.413 27.413C25.0217 27.805 24.5507 28.0007 24 28H14ZM16 24H18V15H16V24ZM20 24H22V15H20V24Z" fill="#FF7C7C"/>
</svg>
