<svg width="43" height="43" viewBox="0 0 43 43" fill="none" xmlns="http://www.w3.org/2000/svg">
<path d="M0 12C0 5.37258 5.37258 0 12 0H31C37.6274 0 43 5.37258 43 12V31C43 37.6274 37.6274 43 31 43H12C5.37258 43 0 37.6274 0 31V12Z" fill="#F2F1FD"/>
<path d="M31.3702 18.6108V18.5608C30.6656 16.6371 29.3871 14.9761 27.7076 13.8027C26.0282 12.6293 24.0289 12 21.9802 12C19.9314 12 17.9321 12.6293 16.2527 13.8027C14.5732 14.9761 13.2948 16.6371 12.5902 18.5608C12.5902 18.5608 12.5902 18.5608 12.5902 18.6108C11.8033 20.7817 11.8033 23.1599 12.5902 25.3308V25.3808C13.2948 27.3046 14.5732 28.9655 16.2527 30.139C17.9321 31.3124 19.9314 31.9417 21.9802 31.9417C24.0289 31.9417 26.0282 31.3124 27.7076 30.139C29.3871 28.9655 30.6656 27.3046 31.3702 25.3808C31.3702 25.3808 31.3702 25.3808 31.3702 25.3308C32.157 23.1599 32.157 20.7817 31.3702 18.6108ZM14.2202 23.9708C13.8725 22.6602 13.8725 21.2815 14.2202 19.9708H16.0802C15.9199 21.2993 15.9199 22.6423 16.0802 23.9708H14.2202ZM15.0402 25.9708H16.4402C16.6736 26.8631 17.0092 27.7254 17.4402 28.5408C16.4595 27.8728 15.6397 26.9949 15.0402 25.9708ZM16.4402 17.9708H15.0402C15.631 16.9499 16.4403 16.0723 17.4102 15.4008C16.9895 16.2175 16.664 17.0799 16.4402 17.9708ZM20.9602 29.6708C19.7319 28.7695 18.8693 27.4561 18.5302 25.9708H20.9602V29.6708ZM20.9602 23.9708H18.1002C17.9141 22.644 17.9141 21.2977 18.1002 19.9708H20.9602V23.9708ZM20.9602 17.9708H18.5302C18.8693 16.4856 19.7319 15.1721 20.9602 14.2708V17.9708ZM28.8802 17.9708H27.4802C27.2467 17.0786 26.9111 16.2162 26.4802 15.4008C27.4609 16.0689 28.2807 16.9468 28.8802 17.9708ZM22.9602 14.2708C24.1884 15.1721 25.051 16.4856 25.3902 17.9708H22.9602V14.2708ZM22.9602 29.6708V25.9708H25.3902C25.051 27.4561 24.1884 28.7695 22.9602 29.6708ZM25.8202 23.9708H22.9602V19.9708H25.8202C26.0062 21.2977 26.0062 22.644 25.8202 23.9708ZM26.5102 28.5408C26.9411 27.7254 27.2767 26.8631 27.5102 25.9708H28.9102C28.3107 26.9949 27.4909 27.8728 26.5102 28.5408ZM29.7002 23.9708H27.8402C27.9219 23.3073 27.962 22.6393 27.9602 21.9708C27.962 21.3023 27.9219 20.6343 27.8402 19.9708H29.7002C30.0478 21.2815 30.0478 22.6602 29.7002 23.9708Z" fill="#624EFC"/>
</svg>
