<svg width="44" height="44" viewBox="0 0 44 44" fill="none" xmlns="http://www.w3.org/2000/svg">
<rect opacity="0.15" width="44" height="44" rx="12" fill="#624EFC"/>
<path d="M31.2635 10.421H12.7372C11.5793 10.421 10.4214 11.4631 10.4214 12.7368V16.2221C10.4214 17.6977 11.5793 19.0781 11.5793 20.5537V31.2631C11.5793 32.5368 12.853 33.5789 13.8951 33.5789H30.1056C31.1477 33.5789 32.4214 32.5368 32.4214 31.2631V20.5537C32.4214 19.0781 33.5793 17.6977 33.5793 16.2221V12.7368C33.5793 11.4631 32.4214 10.421 31.2635 10.421ZM25.474 23.1579C25.474 23.7974 24.9556 24.3158 24.3161 24.3158H19.6845C19.0451 24.3158 18.5267 23.7974 18.5267 23.1579C18.5267 22.5184 19.0451 22 19.6845 22H24.3161C24.9556 22 25.474 22.5184 25.474 23.1579ZM31.2635 14.4632C31.2635 15.4282 30.4812 16.2105 29.5162 16.2105H14.4751C13.5153 16.2105 12.7372 15.4324 12.7372 14.4726C12.7372 13.5136 13.514 12.7358 14.4729 12.7346L29.514 12.7158C30.4799 12.7146 31.2635 13.4973 31.2635 14.4632Z" fill="#624EFC"/>
</svg>
