<svg width="44" height="44" viewBox="0 0 44 44" fill="none" xmlns="http://www.w3.org/2000/svg">
<rect opacity="0.15" width="44" height="44" rx="12" fill="#624EFC"/>
<path d="M22 27.5C22.5304 27.5 23.0391 27.2893 23.4142 26.9142C23.7893 26.5391 24 26.0304 24 25.5C24 24.9696 23.7893 24.4609 23.4142 24.0858C23.0391 23.7107 22.5304 23.5 22 23.5C21.4696 23.5 20.9609 23.7107 20.5858 24.0858C20.2107 24.4609 20 24.9696 20 25.5C20 26.0304 20.2107 26.5391 20.5858 26.9142C20.9609 27.2893 21.4696 27.5 22 27.5ZM28 18.5C28.5304 18.5 29.0391 18.7107 29.4142 19.0858C29.7893 19.4609 30 19.9696 30 20.5V30.5C30 31.0304 29.7893 31.5391 29.4142 31.9142C29.0391 32.2893 28.5304 32.5 28 32.5H16C15.4696 32.5 14.9609 32.2893 14.5858 31.9142C14.2107 31.5391 14 31.0304 14 30.5V20.5C14 19.9696 14.2107 19.4609 14.5858 19.0858C14.9609 18.7107 15.4696 18.5 16 18.5H17V16.5C17 15.1739 17.5268 13.9021 18.4645 12.9645C19.4021 12.0268 20.6739 11.5 22 11.5C22.6566 11.5 23.3068 11.6293 23.9134 11.8806C24.52 12.1319 25.0712 12.5002 25.5355 12.9645C25.9998 13.4288 26.3681 13.98 26.6194 14.5866C26.8707 15.1932 27 15.8434 27 16.5V18.5H28ZM22 13.5C21.2044 13.5 20.4413 13.8161 19.8787 14.3787C19.3161 14.9413 19 15.7044 19 16.5V18.5H25V16.5C25 15.7044 24.6839 14.9413 24.1213 14.3787C23.5587 13.8161 22.7956 13.5 22 13.5Z" fill="#624EFC"/>
</svg>
