<svg width="44" height="44" viewBox="0 0 44 44" fill="none" xmlns="http://www.w3.org/2000/svg">
<rect opacity="0.15" width="44" height="44" rx="12" fill="#624EFC"/>
<path d="M18 20H26M18 28H26M18 24H22M14 31.4V12.6C14 12.4409 14.0632 12.2883 14.1757 12.1757C14.2883 12.0632 14.4409 12 14.6 12H26.252C26.4111 12.0001 26.5636 12.0634 26.676 12.176L29.824 15.324C29.88 15.3799 29.9243 15.4463 29.9545 15.5194C29.9847 15.5925 30.0002 15.6709 30 15.75V31.4C30 31.4788 29.9845 31.5568 29.9543 31.6296C29.9242 31.7024 29.88 31.7685 29.8243 31.8243C29.7685 31.88 29.7024 31.9242 29.6296 31.9543C29.5568 31.9845 29.4788 32 29.4 32H14.6C14.5212 32 14.4432 31.9845 14.3704 31.9543C14.2976 31.9242 14.2315 31.88 14.1757 31.8243C14.12 31.7685 14.0758 31.7024 14.0457 31.6296C14.0155 31.5568 14 31.4788 14 31.4Z" stroke="#624EFC" stroke-width="1.5" stroke-linecap="round" stroke-linejoin="round"/>
<path d="M26 12V15.4C26 15.5591 26.0632 15.7117 26.1757 15.8243C26.2883 15.9368 26.4409 16 26.6 16H30" stroke="#624EFC" stroke-width="1.5" stroke-linecap="round" stroke-linejoin="round"/>
</svg>
