<svg width="44" height="44" viewBox="0 0 44 44" fill="none" xmlns="http://www.w3.org/2000/svg">
<rect opacity="0.15" width="44" height="44" rx="12" fill="#624EFC"/>
<path d="M22 21.35C21.1475 21.35 20.33 21.0076 19.7272 20.3981C19.1244 19.7886 18.7857 18.962 18.7857 18.1C18.7857 17.238 19.1244 16.4114 19.7272 15.8019C20.33 15.1924 21.1475 14.85 22 14.85C22.8525 14.85 23.67 15.1924 24.2728 15.8019C24.8756 16.4114 25.2143 17.238 25.2143 18.1C25.2143 18.5268 25.1311 18.9494 24.9696 19.3437C24.8081 19.738 24.5713 20.0963 24.2728 20.3981C23.9744 20.6999 23.62 20.9393 23.2301 21.1026C22.8401 21.2659 22.4221 21.35 22 21.35ZM22 9C19.6131 9 17.3239 9.95875 15.636 11.6653C13.9482 13.3719 13 15.6865 13 18.1C13 24.925 22 35 22 35C22 35 31 24.925 31 18.1C31 15.6865 30.0518 13.3719 28.364 11.6653C26.6761 9.95875 24.3869 9 22 9Z" fill="#624EFC"/>
</svg>
