<svg width="28" height="29" viewBox="0 0 28 29" fill="none" xmlns="http://www.w3.org/2000/svg">
<path d="M14 0.760208C21.4561 0.760208 27.5 6.80415 27.5 14.2602C27.5 21.7163 21.4561 27.7602 14 27.7602C6.54394 27.7602 0.5 21.7163 0.5 14.2602C0.5 6.80415 6.54394 0.760208 14 0.760208ZM7.7002 11.6606C7.01068 11.6606 6.34891 11.9338 5.86133 12.4213C5.37373 12.9089 5.09961 13.5706 5.09961 14.2602C5.09961 14.9498 5.37373 15.6115 5.86133 16.0991C6.34891 16.5866 7.01068 16.8598 7.7002 16.8598C8.3895 16.8598 9.05057 16.5864 9.53809 16.0991C10.0257 15.6115 10.2998 14.9498 10.2998 14.2602C10.2998 13.5706 10.0257 12.9089 9.53809 12.4213C9.05057 11.934 8.3895 11.6607 7.7002 11.6606ZM14 11.6606C13.3104 11.6606 12.6487 11.9337 12.1611 12.4213C11.6735 12.9089 11.4004 13.5706 11.4004 14.2602C11.4004 14.9498 11.6735 15.6115 12.1611 16.0991C12.6487 16.5867 13.3104 16.8598 14 16.8598C14.6896 16.8598 15.3513 16.5867 15.8389 16.0991C16.3265 15.6115 16.5996 14.9498 16.5996 14.2602C16.5996 13.5706 16.3265 12.9089 15.8389 12.4213C15.3513 11.9337 14.6896 11.6606 14 11.6606ZM20.2998 11.6606C19.6105 11.6607 18.9494 11.934 18.4619 12.4213C17.9743 12.9089 17.7002 13.5706 17.7002 14.2602C17.7002 14.9498 17.9743 15.6115 18.4619 16.0991C18.9494 16.5864 19.6105 16.8598 20.2998 16.8598C20.9893 16.8598 21.6511 16.5866 22.1387 16.0991C22.6263 15.6115 22.9004 14.9498 22.9004 14.2602C22.9004 13.5706 22.6263 12.9089 22.1387 12.4213C21.6511 11.9338 20.9893 11.6606 20.2998 11.6606Z" stroke="#BCBCBC"/>
</svg>
