<svg width="44" height="44" viewBox="0 0 44 44" fill="none" xmlns="http://www.w3.org/2000/svg">
<rect opacity="0.15" width="44" height="44" rx="12" fill="#FF8D28"/>
<path d="M26.5 15.2025L31 17.5325V25.3605C31 25.7165 31 25.8935 30.946 26.0525C30.899 26.192 30.8219 26.3193 30.72 26.4255C30.605 26.5465 30.447 26.6275 30.131 26.7915L22 30.9995L13.869 26.7915C13.553 26.6275 13.395 26.5465 13.28 26.4255C13.1781 26.3193 13.101 26.192 13.054 26.0525C13 25.8935 13 25.7155 13 25.3585V17.5325L21.269 13.2535C21.537 13.1155 21.67 13.0455 21.811 13.0185C21.9359 12.9945 22.0641 12.9945 22.189 13.0185C22.329 13.0455 22.463 13.1155 22.73 13.2535L26.5 15.2025ZM22 30.9995V21.9365M31 17.5325L22 21.9365M13 17.5325L17.5 19.7355M22 21.9365L17.5 19.7345M17.5 21.9365V19.7345L26.5 15.2025" stroke="#FF8D28" stroke-width="1.5" stroke-linecap="round" stroke-linejoin="round"/>
</svg>
