<svg width="43" height="43" viewBox="0 0 43 43" fill="none" xmlns="http://www.w3.org/2000/svg">
<path d="M0 12C0 5.37258 5.37258 0 12 0H31C37.6274 0 43 5.37258 43 12V31C43 37.6274 37.6274 43 31 43H12C5.37258 43 0 37.6274 0 31V12Z" fill="#F2F1FD"/>
<path d="M17.375 13C17.875 13 19.875 17.5 19.875 18C19.875 19 18.375 20 17.875 21C17.375 22 18.375 23 19.375 24C19.765 24.39 21.375 26 22.375 25.5C23.375 25 24.375 23.5 25.375 23.5C25.875 23.5 30.375 25.5 30.375 26C30.375 28 28.875 29.5 27.375 30C25.875 30.5 24.875 30.5 22.875 30C20.875 29.5 19.375 29 16.875 26.5C14.375 24 13.875 22.5 13.375 20.5C12.875 18.5 12.875 17.5 13.375 16C13.875 14.5 15.375 13 17.375 13Z" stroke="#624EFC" stroke-width="2" stroke-linecap="round" stroke-linejoin="round"/>
</svg>
