<svg width="44" height="44" viewBox="0 0 44 44" fill="none" xmlns="http://www.w3.org/2000/svg">
<rect opacity="0.15" width="44" height="44" rx="12" fill="#624EFC"/>
<path fill-rule="evenodd" clip-rule="evenodd" d="M23.7793 12.152C23.4093 12 22.9393 12 22.0003 12C21.0613 12 20.5923 12 20.2213 12.152C19.9772 12.2517 19.7552 12.3988 19.5682 12.5846C19.3811 12.7705 19.2326 12.9915 19.1313 13.235C19.0373 13.458 19.0013 13.719 18.9863 14.098C18.9792 14.3725 18.9024 14.6407 18.7631 14.8774C18.6239 15.114 18.4268 15.3114 18.1903 15.451C17.9491 15.5851 17.6779 15.6561 17.4018 15.6575C17.1258 15.6589 16.8539 15.5907 16.6113 15.459C16.2733 15.281 16.0283 15.183 15.7863 15.151C15.2569 15.0819 14.7216 15.2242 14.2963 15.547C13.9783 15.789 13.7433 16.193 13.2743 17C12.8043 17.807 12.5703 18.21 12.5173 18.605C12.4473 19.131 12.5913 19.663 12.9173 20.084C13.0653 20.276 13.2743 20.437 13.5973 20.639C14.0743 20.936 14.3803 21.442 14.3803 22C14.3803 22.558 14.0743 23.064 13.5983 23.36C13.2743 23.563 13.0653 23.724 12.9163 23.916C12.7559 24.1242 12.6381 24.362 12.5696 24.6158C12.5011 24.8696 12.4834 25.1343 12.5173 25.395C12.5703 25.789 12.8043 26.193 13.2743 27C13.7443 27.807 13.9783 28.21 14.2963 28.453C14.7203 28.776 15.2563 28.918 15.7863 28.849C16.0283 28.817 16.2733 28.719 16.6113 28.541C16.854 28.4092 17.1261 28.3408 17.4023 28.3422C17.6786 28.3436 17.9499 28.4147 18.1913 28.549C18.6773 28.829 18.9653 29.344 18.9863 29.902C19.0013 30.282 19.0373 30.542 19.1313 30.765C19.3353 31.255 19.7273 31.645 20.2213 31.848C20.5913 32 21.0613 32 22.0003 32C22.9393 32 23.4093 32 23.7793 31.848C24.0234 31.7483 24.2454 31.6012 24.4325 31.4154C24.6195 31.2295 24.768 31.0085 24.8693 30.765C24.9633 30.542 24.9993 30.282 25.0143 29.902C25.0343 29.344 25.3233 28.828 25.8103 28.549C26.0516 28.4149 26.3228 28.3439 26.5988 28.3425C26.8748 28.3411 27.1467 28.4093 27.3893 28.541C27.7273 28.719 27.9723 28.817 28.2143 28.849C28.7443 28.919 29.2803 28.776 29.7043 28.453C30.0223 28.211 30.2573 27.807 30.7263 27C31.1963 26.193 31.4303 25.79 31.4833 25.395C31.5171 25.1343 31.4992 24.8695 31.4306 24.6157C31.3619 24.3619 31.2439 24.1241 31.0833 23.916C30.9353 23.724 30.7263 23.563 30.4033 23.361C29.9263 23.064 29.6203 22.558 29.6203 22C29.6203 21.442 29.9263 20.936 30.4023 20.64C30.7263 20.437 30.9353 20.276 31.0843 20.084C31.2447 19.8758 31.3626 19.638 31.431 19.3842C31.4995 19.1304 31.5173 18.8657 31.4833 18.605C31.4303 18.211 31.1963 17.807 30.7263 17C30.2563 16.193 30.0223 15.79 29.7043 15.547C29.279 15.2242 28.7437 15.0819 28.2143 15.151C27.9723 15.183 27.7273 15.281 27.3893 15.459C27.1466 15.5908 26.8745 15.6592 26.5983 15.6578C26.3221 15.6564 26.0507 15.5853 25.8093 15.451C25.573 15.3113 25.3761 15.1139 25.2371 14.8772C25.098 14.6405 25.0213 14.3724 25.0143 14.098C24.9993 13.718 24.9633 13.458 24.8693 13.235C24.768 12.9915 24.6195 12.7705 24.4325 12.5846C24.2454 12.3988 24.0234 12.2517 23.7793 12.152ZM22.0003 25C23.6703 25 25.0233 23.657 25.0233 22C25.0233 20.343 23.6693 19 22.0003 19C20.3313 19 18.9773 20.343 18.9773 22C18.9773 23.657 20.3313 25 22.0003 25Z" fill="#624EFC"/>
</svg>
