<svg width="47" height="48" viewBox="0 0 47 48" fill="none" xmlns="http://www.w3.org/2000/svg">
<g filter="url(#filter0_d_322_1456)">
<path d="M4.17969 11.9527C4.17969 6.22907 8.81964 1.58911 14.5433 1.58911H31.8161C37.5397 1.58911 42.1797 6.22907 42.1797 11.9527V30.2255C42.1797 35.9492 37.5397 40.5891 31.8161 40.5891H14.5433C8.81964 40.5891 4.17969 35.9492 4.17969 30.2255V11.9527Z" fill="#F2F1FD"/>
</g>
<path fill-rule="evenodd" clip-rule="evenodd" d="M29.0535 19.9286L30.9452 18.0369C31.5193 17.4628 31.8069 17.1752 31.9607 16.8656C32.1047 16.5748 32.1797 16.2547 32.1797 15.9302C32.1797 15.6057 32.1047 15.2856 31.9607 14.9949C31.8069 14.6852 31.5193 14.3976 30.9452 13.8236C30.3712 13.2495 30.0836 12.9619 29.7739 12.8081C29.4832 12.6641 29.1631 12.5891 28.8386 12.5891C28.5141 12.5891 28.194 12.6641 27.9032 12.8081C27.5936 12.9619 27.306 13.2495 26.7319 13.8236L24.8159 15.7396C25.8352 17.4845 27.2969 18.9295 29.0535 19.9286ZM23.2844 17.2711L16.048 24.5075C15.5993 24.9562 15.376 25.1795 15.2285 25.4555C15.0811 25.7293 15.0189 26.0401 14.8957 26.6615L14.2468 29.9026C14.1773 30.2523 14.1415 30.4272 14.2416 30.5272C14.3416 30.6273 14.5154 30.5915 14.8662 30.522L18.1073 29.8731C18.7287 29.7499 19.0395 29.6877 19.3144 29.5403C19.5893 29.3928 19.8126 29.1695 20.2603 28.7218L27.5177 21.4644C25.8135 20.3975 24.3672 18.9656 23.2833 17.2722" fill="#624EFC"/>
<defs>
<filter id="filter0_d_322_1456" x="-0.000312328" y="2.0504e-05" width="46.36" height="47.36" filterUnits="userSpaceOnUse" color-interpolation-filters="sRGB">
<feFlood flood-opacity="0" result="BackgroundImageFix"/>
<feColorMatrix in="SourceAlpha" type="matrix" values="0 0 0 0 0 0 0 0 0 0 0 0 0 0 0 0 0 0 127 0" result="hardAlpha"/>
<feOffset dy="2.59091"/>
<feGaussianBlur stdDeviation="2.09"/>
<feComposite in2="hardAlpha" operator="out"/>
<feColorMatrix type="matrix" values="0 0 0 0 0 0 0 0 0 0 0 0 0 0 0 0 0 0 0.2 0"/>
<feBlend mode="normal" in2="BackgroundImageFix" result="effect1_dropShadow_322_1456"/>
<feBlend mode="normal" in="SourceGraphic" in2="effect1_dropShadow_322_1456" result="shape"/>
</filter>
</defs>
</svg>
