<svg width="32" height="32" viewBox="0 0 32 32" fill="none" xmlns="http://www.w3.org/2000/svg">
<rect opacity="0.15" width="32" height="32" rx="8.72727" fill="#624EFC"/>
<path d="M22.4915 12.4174C22.9914 12.9177 23.2724 13.596 23.2726 14.3033V20.6058C23.2726 21.3131 22.9916 21.9915 22.4915 22.4916C21.9913 22.9917 21.313 23.2727 20.6057 23.2727H14.3031C13.5958 23.2727 12.9175 22.9917 12.4174 22.4916C11.9172 21.9915 11.6362 21.3131 11.6362 20.6058V14.3033C11.6362 14.2776 11.6374 14.2528 11.6399 14.2291C11.6579 13.5349 11.9465 12.8753 12.444 12.3909C12.9416 11.9065 13.6087 11.6357 14.3031 11.6364H20.6057C21.3133 11.6364 21.9911 11.9171 22.4915 12.4174Z" fill="#624EFC"/>
<path d="M19.9081 9.82839C19.9546 9.91186 19.9841 10.0037 19.995 10.0985C20.006 10.1934 19.9981 10.2895 19.9719 10.3814C19.9457 10.4732 19.9017 10.559 19.8423 10.6338C19.7829 10.7087 19.7094 10.7711 19.626 10.8175C19.5425 10.8639 19.4507 10.8934 19.3558 10.9044C19.2609 10.9153 19.1648 10.9074 19.073 10.8812C18.9811 10.855 18.8953 10.811 18.8205 10.7516C18.7457 10.6923 18.6833 10.6188 18.6369 10.5353C18.4761 10.2458 18.3881 10.1818 18.1816 10.1818H10.9089C10.5103 10.1818 10.1816 10.5106 10.1816 10.9091V18.1804C10.1816 18.4422 10.3227 18.6837 10.5503 18.8131C10.6333 18.8604 10.7062 18.9235 10.7648 18.999C10.8234 19.0744 10.8665 19.1607 10.8918 19.2528C10.917 19.3449 10.9239 19.4411 10.912 19.5359C10.9001 19.6306 10.8696 19.7221 10.8223 19.8051C10.775 19.8881 10.7119 19.961 10.6364 20.0196C10.561 20.0782 10.4748 20.1213 10.3827 20.1466C10.2905 20.1718 10.1944 20.1787 10.0996 20.1668C10.0048 20.1549 9.91332 20.1244 9.83032 20.0771C9.4955 19.8867 9.21704 19.6111 9.02326 19.2782C8.82948 18.9453 8.72728 18.567 8.72705 18.1818V10.9091C8.72705 9.70766 9.70741 8.72729 10.9089 8.72729H18.1816C18.9772 8.72729 19.5111 9.11493 19.9081 9.82839Z" fill="#624EFC"/>
</svg>
