<svg width="38" height="38" viewBox="0 0 38 38" fill="none" xmlns="http://www.w3.org/2000/svg">
<rect width="38" height="38" rx="5" fill="#7143EA" fill-opacity="0.1"/>
<path fill-rule="evenodd" clip-rule="evenodd" d="M16.778 28H21.222C24.343 28 25.904 28 27.025 27.265C27.5088 26.9482 27.9254 26.5391 28.251 26.061C29 24.961 29 23.428 29 20.364C29 17.3 29 15.767 28.251 14.667C27.9254 14.189 27.5088 13.7799 27.025 13.463C26.305 12.99 25.403 12.821 24.022 12.761C23.363 12.761 22.796 12.271 22.667 11.636C22.5684 11.1709 22.3123 10.7541 21.9418 10.456C21.5714 10.1579 21.1095 9.99686 20.634 10H17.366C16.378 10 15.527 10.685 15.333 11.636C15.204 12.271 14.637 12.761 13.978 12.761C12.598 12.821 11.696 12.991 10.975 13.463C10.4915 13.78 10.0753 14.1891 9.75 14.667C9 15.767 9 17.299 9 20.364C9 23.429 9 24.96 9.749 26.061C10.073 26.537 10.489 26.946 10.975 27.265C12.096 28 13.657 28 16.778 28ZM19 16.273C16.699 16.273 14.833 18.104 14.833 20.363C14.833 22.622 16.7 24.456 19 24.456C21.3 24.456 23.167 22.624 23.167 20.365C23.167 18.106 21.3 16.273 19 16.273ZM19 17.909C17.62 17.909 16.5 19.008 16.5 20.364C16.5 21.719 17.62 22.818 19 22.818C20.38 22.818 21.5 21.719 21.5 20.364C21.5 19.009 20.38 17.909 19 17.909ZM23.722 17.091C23.722 16.639 24.095 16.273 24.556 16.273H25.666C26.126 16.273 26.5 16.639 26.5 17.091C26.4979 17.3099 26.409 17.5191 26.2528 17.6724C26.0966 17.8258 25.8859 17.9109 25.667 17.909H24.556C24.4475 17.9101 24.3399 17.8898 24.2393 17.8492C24.1387 17.8087 24.047 17.7487 23.9696 17.6728C23.8921 17.5968 23.8304 17.5064 23.7879 17.4065C23.7454 17.3067 23.723 17.1995 23.722 17.091Z" fill="#624EFC"/>
</svg>
