<svg width="47" height="48" viewBox="0 0 47 48" fill="none" xmlns="http://www.w3.org/2000/svg">
<g filter="url(#filter0_d_180_620)">
<path d="M4.18018 11.9527C4.18018 6.22907 8.82013 1.58911 14.5438 1.58911H31.8165C37.5402 1.58911 42.1802 6.22907 42.1802 11.9527V30.2255C42.1802 35.9492 37.5402 40.5891 31.8165 40.5891H14.5438C8.82013 40.5891 4.18018 35.9492 4.18018 30.2255V11.9527Z" fill="#F2F1FD"/>
</g>
<path fill-rule="evenodd" clip-rule="evenodd" d="M19.4856 21.8995C19.29 21.6882 19.1802 21.4017 19.1802 21.103C19.1802 20.8042 19.29 20.5177 19.4856 20.3064L25.3867 13.9331C25.4829 13.8255 25.598 13.7396 25.7253 13.6806C25.8526 13.6215 25.9895 13.5905 26.128 13.5892C26.2665 13.5879 26.4038 13.6164 26.532 13.673C26.6602 13.7297 26.7767 13.8133 26.8746 13.9191C26.9726 14.0249 27.05 14.1507 27.1025 14.2891C27.1549 14.4276 27.1813 14.5759 27.1801 14.7255C27.1789 14.8751 27.1502 15.023 27.0955 15.1604C27.0408 15.2979 26.9613 15.4222 26.8617 15.5261L21.6981 21.103L26.8617 26.6798C27.0517 26.8923 27.1569 27.1769 27.1545 27.4723C27.1521 27.7677 27.0424 28.0502 26.849 28.2591C26.6556 28.468 26.394 28.5865 26.1205 28.5891C25.8469 28.5916 25.5834 28.4781 25.3867 28.2729L19.4856 21.8995Z" fill="black"/>
<defs>
<filter id="filter0_d_180_620" x="0.000175953" y="2.0504e-05" width="46.36" height="47.36" filterUnits="userSpaceOnUse" color-interpolation-filters="sRGB">
<feFlood flood-opacity="0" result="BackgroundImageFix"/>
<feColorMatrix in="SourceAlpha" type="matrix" values="0 0 0 0 0 0 0 0 0 0 0 0 0 0 0 0 0 0 127 0" result="hardAlpha"/>
<feOffset dy="2.59091"/>
<feGaussianBlur stdDeviation="2.09"/>
<feComposite in2="hardAlpha" operator="out"/>
<feColorMatrix type="matrix" values="0 0 0 0 0 0 0 0 0 0 0 0 0 0 0 0 0 0 0.2 0"/>
<feBlend mode="normal" in2="BackgroundImageFix" result="effect1_dropShadow_180_620"/>
<feBlend mode="normal" in="SourceGraphic" in2="effect1_dropShadow_180_620" result="shape"/>
</filter>
</defs>
</svg>
