<svg width="44" height="44" viewBox="0 0 44 44" fill="none" xmlns="http://www.w3.org/2000/svg">
<rect opacity="0.15" width="44" height="44" rx="12" fill="#624EFC"/>
<path d="M31.2055 14.595L29.8655 14.035V23.065L32.2955 17.205C32.7055 16.185 32.2355 15.015 31.2055 14.595ZM11.7055 18.295L16.6655 30.245C16.8115 30.6086 17.0607 30.9215 17.3822 31.1454C17.7038 31.3693 18.0838 31.4942 18.4755 31.505C18.7355 31.505 19.0055 31.455 19.2655 31.345L26.6355 28.295C27.3855 27.985 27.8455 27.245 27.8655 26.505C27.8755 26.245 27.8255 25.955 27.7355 25.695L22.7355 13.745C22.5946 13.3787 22.3465 13.0634 22.0236 12.8404C21.7006 12.6174 21.3179 12.497 20.9255 12.495C20.6655 12.495 20.4055 12.555 20.1555 12.645L12.7955 15.695C12.3062 15.8953 11.9166 16.2818 11.7122 16.7693C11.5078 17.2569 11.5054 17.8057 11.7055 18.295ZM27.8555 14.495C27.8555 13.9646 27.6448 13.4559 27.2697 13.0808C26.8946 12.7057 26.3859 12.495 25.8555 12.495H24.4055L27.8555 20.835" fill="#624EFC"/>
</svg>
