<svg width="18" height="15" viewBox="0 0 18 15" fill="none" xmlns="http://www.w3.org/2000/svg">
<path d="M8.99909 3.1579C11.257 3.1579 13.0896 4.92632 13.0896 7.10526C13.0896 7.61842 12.9832 8.1 12.7951 8.55L15.1839 10.8553C16.4192 9.86053 17.3928 8.57368 17.99 7.10526C16.5747 3.63947 13.0814 1.18421 8.99091 1.18421C7.84557 1.18421 6.74932 1.38158 5.73488 1.73684L7.50197 3.44211C7.96829 3.26053 8.46733 3.1579 8.99909 3.1579ZM0.818099 1.00263L2.68336 2.80263L3.05969 3.16579C1.70165 4.18421 0.638117 5.54211 0 7.10526C1.41531 10.5711 4.9086 13.0263 8.99909 13.0263C10.2671 13.0263 11.4779 12.7895 12.5824 12.3632L12.926 12.6947L15.323 15L16.362 13.9974L1.85709 0L0.818099 1.00263ZM5.34219 5.36842L6.61024 6.59211C6.56934 6.75789 6.54479 6.93158 6.54479 7.10526C6.54479 8.41579 7.64105 9.47368 8.99909 9.47368C9.17907 9.47368 9.35905 9.45 9.53086 9.41053L10.7989 10.6342C10.2508 10.8947 9.64539 11.0526 8.99909 11.0526C6.74114 11.0526 4.9086 9.28421 4.9086 7.10526C4.9086 6.48158 5.07222 5.89737 5.34219 5.36842ZM8.86819 4.75263L11.4452 7.23947L11.4616 7.11316C11.4616 5.80263 10.3653 4.74474 9.00727 4.74474L8.86819 4.75263Z" fill="#E1E1E1"/>
</svg>
